<?xml version="1.0" encoding="UTF-8" standalone="no"?>
<!DOCTYPE svg PUBLIC "-//W3C//DTD SVG 1.1//EN"
 "http://www.w3.org/Graphics/SVG/1.1/DTD/svg11.dtd">
<!-- Generated by graphviz version 2.50.0 (0)
 -->
<!-- Pages: 1 -->
<svg width="278pt" height="305pt"
 viewBox="0.00 0.00 278.00 305.00" xmlns="http://www.w3.org/2000/svg" xmlns:xlink="http://www.w3.org/1999/xlink">
<g id="graph0" class="graph" transform="scale(1 1) rotate(0) translate(4 301)">
<polygon fill="white" stroke="transparent" points="-4,4 -4,-301 274,-301 274,4 -4,4"/>
<!-- 0 -->
<g id="node1" class="node">
<title>0</title>
<ellipse fill="none" stroke="green" cx="135" cy="-279" rx="27" ry="18"/>
<text text-anchor="middle" x="135" y="-275.3" font-family="Times,serif" font-size="14.00">0</text>
</g>
<!-- 31 -->
<g id="node2" class="node">
<title>31</title>
<ellipse fill="none" stroke="black" cx="99" cy="-192" rx="27" ry="18"/>
<text text-anchor="middle" x="99" y="-188.3" font-family="Times,serif" font-size="14.00">31</text>
</g>
<!-- 0&#45;&gt;31 -->
<g id="edge1" class="edge">
<title>0&#45;&gt;31</title>
<path fill="none" stroke="black" d="M127.89,-261.21C122.78,-249.14 115.79,-232.64 109.97,-218.89"/>
<polygon fill="black" stroke="black" points="113.1,-217.31 105.98,-209.47 106.65,-220.04 113.1,-217.31"/>
<text text-anchor="middle" x="123.5" y="-231.8" font-family="Times,serif" font-size="14.00">8</text>
</g>
<!-- 35 -->
<g id="node3" class="node">
<title>35</title>
<ellipse fill="none" stroke="black" cx="171" cy="-192" rx="27" ry="18"/>
<text text-anchor="middle" x="171" y="-188.3" font-family="Times,serif" font-size="14.00">35</text>
</g>
<!-- 0&#45;&gt;35 -->
<g id="edge2" class="edge">
<title>0&#45;&gt;35</title>
<path fill="none" stroke="black" d="M142.11,-261.21C147.22,-249.14 154.21,-232.64 160.03,-218.89"/>
<polygon fill="black" stroke="black" points="163.35,-220.04 164.02,-209.47 156.9,-217.31 163.35,-220.04"/>
<text text-anchor="middle" x="158.5" y="-231.8" font-family="Times,serif" font-size="14.00">9</text>
</g>
<!-- 3 -->
<g id="node4" class="node">
<title>3</title>
<ellipse fill="none" stroke="black" cx="27" cy="-105" rx="27" ry="18"/>
<text text-anchor="middle" x="27" y="-101.3" font-family="Times,serif" font-size="14.00">3</text>
</g>
<!-- 31&#45;&gt;3 -->
<g id="edge3" class="edge">
<title>31&#45;&gt;3</title>
<path fill="none" stroke="black" d="M86.13,-175.8C75.07,-162.75 58.96,-143.74 46.35,-128.85"/>
<polygon fill="black" stroke="black" points="48.89,-126.43 39.76,-121.06 43.55,-130.96 48.89,-126.43"/>
<text text-anchor="middle" x="71.5" y="-144.8" font-family="Times,serif" font-size="14.00">0</text>
</g>
<!-- 7 -->
<g id="node5" class="node">
<title>7</title>
<ellipse fill="none" stroke="black" cx="99" cy="-105" rx="27" ry="18"/>
<text text-anchor="middle" x="99" y="-101.3" font-family="Times,serif" font-size="14.00">7</text>
</g>
<!-- 31&#45;&gt;7 -->
<g id="edge4" class="edge">
<title>31&#45;&gt;7</title>
<path fill="none" stroke="black" d="M99,-173.8C99,-162.16 99,-146.55 99,-133.24"/>
<polygon fill="black" stroke="black" points="102.5,-133.18 99,-123.18 95.5,-133.18 102.5,-133.18"/>
<text text-anchor="middle" x="102.5" y="-144.8" font-family="Times,serif" font-size="14.00">1</text>
</g>
<!-- 15 -->
<g id="node6" class="node">
<title>15</title>
<ellipse fill="none" stroke="black" cx="171" cy="-105" rx="27" ry="18"/>
<text text-anchor="middle" x="171" y="-101.3" font-family="Times,serif" font-size="14.00">15</text>
</g>
<!-- 35&#45;&gt;15 -->
<g id="edge5" class="edge">
<title>35&#45;&gt;15</title>
<path fill="none" stroke="black" d="M171,-173.8C171,-162.16 171,-146.55 171,-133.24"/>
<polygon fill="black" stroke="black" points="174.5,-133.18 171,-123.18 167.5,-133.18 174.5,-133.18"/>
<text text-anchor="middle" x="174.5" y="-144.8" font-family="Times,serif" font-size="14.00">3</text>
</g>
<!-- 23 -->
<g id="node7" class="node">
<title>23</title>
<ellipse fill="none" stroke="black" cx="243" cy="-105" rx="27" ry="18"/>
<text text-anchor="middle" x="243" y="-101.3" font-family="Times,serif" font-size="14.00">23</text>
</g>
<!-- 35&#45;&gt;23 -->
<g id="edge6" class="edge">
<title>35&#45;&gt;23</title>
<path fill="none" stroke="black" d="M183.87,-175.8C194.93,-162.75 211.04,-143.74 223.65,-128.85"/>
<polygon fill="black" stroke="black" points="226.45,-130.96 230.24,-121.06 221.11,-126.43 226.45,-130.96"/>
<text text-anchor="middle" x="214.5" y="-144.8" font-family="Times,serif" font-size="14.00">5</text>
</g>
<!-- 12 -->
<g id="node10" class="node">
<title>12</title>
<ellipse fill="none" stroke="green" cx="27" cy="-18" rx="27" ry="18"/>
<text text-anchor="middle" x="27" y="-14.3" font-family="Times,serif" font-size="14.00">12</text>
</g>
<!-- 3&#45;&gt;12 -->
<g id="edge9" class="edge">
<title>3&#45;&gt;12</title>
<path fill="none" stroke="black" d="M27,-86.8C27,-75.16 27,-59.55 27,-46.24"/>
<polygon fill="black" stroke="black" points="30.5,-46.18 27,-36.18 23.5,-46.18 30.5,-46.18"/>
<text text-anchor="middle" x="30.5" y="-57.8" font-family="Times,serif" font-size="14.00">3</text>
</g>
<!-- 20 -->
<g id="node11" class="node">
<title>20</title>
<ellipse fill="none" stroke="green" cx="99" cy="-18" rx="27" ry="18"/>
<text text-anchor="middle" x="99" y="-14.3" font-family="Times,serif" font-size="14.00">20</text>
</g>
<!-- 7&#45;&gt;20 -->
<g id="edge10" class="edge">
<title>7&#45;&gt;20</title>
<path fill="none" stroke="black" d="M99,-86.8C99,-75.16 99,-59.55 99,-46.24"/>
<polygon fill="black" stroke="black" points="102.5,-46.18 99,-36.18 95.5,-46.18 102.5,-46.18"/>
<text text-anchor="middle" x="102.5" y="-57.8" font-family="Times,serif" font-size="14.00">5</text>
</g>
<!-- 21 -->
<g id="node8" class="node">
<title>21</title>
<ellipse fill="none" stroke="green" cx="171" cy="-18" rx="27" ry="18"/>
<text text-anchor="middle" x="171" y="-14.3" font-family="Times,serif" font-size="14.00">21</text>
</g>
<!-- 15&#45;&gt;21 -->
<g id="edge7" class="edge">
<title>15&#45;&gt;21</title>
<path fill="none" stroke="black" d="M171,-86.8C171,-75.16 171,-59.55 171,-46.24"/>
<polygon fill="black" stroke="black" points="174.5,-46.18 171,-36.18 167.5,-46.18 174.5,-46.18"/>
<text text-anchor="middle" x="174.5" y="-57.8" font-family="Times,serif" font-size="14.00">5</text>
</g>
<!-- 10 -->
<g id="node9" class="node">
<title>10</title>
<ellipse fill="none" stroke="green" cx="243" cy="-18" rx="27" ry="18"/>
<text text-anchor="middle" x="243" y="-14.3" font-family="Times,serif" font-size="14.00">10</text>
</g>
<!-- 23&#45;&gt;10 -->
<g id="edge8" class="edge">
<title>23&#45;&gt;10</title>
<path fill="none" stroke="black" d="M243,-86.8C243,-75.16 243,-59.55 243,-46.24"/>
<polygon fill="black" stroke="black" points="246.5,-46.18 243,-36.18 239.5,-46.18 246.5,-46.18"/>
<text text-anchor="middle" x="246.5" y="-57.8" font-family="Times,serif" font-size="14.00">2</text>
</g>
</g>
</svg>
