<?xml version="1.0" encoding="UTF-8" standalone="no"?>
<!DOCTYPE svg PUBLIC "-//W3C//DTD SVG 1.1//EN"
 "http://www.w3.org/Graphics/SVG/1.1/DTD/svg11.dtd">
<!-- Generated by graphviz version 2.50.0 (0)
 -->
<!-- Pages: 1 -->
<svg width="245pt" height="392pt"
 viewBox="0.00 0.00 245.00 392.00" xmlns="http://www.w3.org/2000/svg" xmlns:xlink="http://www.w3.org/1999/xlink">
<g id="graph0" class="graph" transform="scale(1 1) rotate(0) translate(4 388)">
<polygon fill="white" stroke="transparent" points="-4,4 -4,-388 241,-388 241,4 -4,4"/>
<!-- 0 -->
<g id="node1" class="node">
<title>0</title>
<ellipse fill="none" stroke="green" cx="173" cy="-366" rx="27" ry="18"/>
<text text-anchor="middle" x="173" y="-362.3" font-family="Times,serif" font-size="14.00">0</text>
</g>
<!-- 27 -->
<g id="node2" class="node">
<title>27</title>
<ellipse fill="none" stroke="black" cx="138" cy="-279" rx="27" ry="18"/>
<text text-anchor="middle" x="138" y="-275.3" font-family="Times,serif" font-size="14.00">27</text>
</g>
<!-- 0&#45;&gt;27 -->
<g id="edge1" class="edge">
<title>0&#45;&gt;27</title>
<path fill="none" stroke="black" d="M166.09,-348.21C161.12,-336.14 154.32,-319.64 148.66,-305.89"/>
<polygon fill="black" stroke="black" points="151.83,-304.38 144.78,-296.47 145.35,-307.05 151.83,-304.38"/>
<text text-anchor="middle" x="161.5" y="-318.8" font-family="Times,serif" font-size="14.00">6</text>
</g>
<!-- 36 -->
<g id="node3" class="node">
<title>36</title>
<ellipse fill="none" stroke="black" cx="210" cy="-279" rx="27" ry="18"/>
<text text-anchor="middle" x="210" y="-275.3" font-family="Times,serif" font-size="14.00">36</text>
</g>
<!-- 0&#45;&gt;36 -->
<g id="edge2" class="edge">
<title>0&#45;&gt;36</title>
<path fill="none" stroke="black" d="M180.13,-348.61C185.37,-336.58 192.6,-319.98 198.63,-306.13"/>
<polygon fill="black" stroke="black" points="201.98,-307.19 202.76,-296.63 195.56,-304.4 201.98,-307.19"/>
<text text-anchor="middle" x="196.5" y="-318.8" font-family="Times,serif" font-size="14.00">8</text>
</g>
<!-- 7 -->
<g id="node4" class="node">
<title>7</title>
<ellipse fill="none" stroke="black" cx="66" cy="-192" rx="27" ry="18"/>
<text text-anchor="middle" x="66" y="-188.3" font-family="Times,serif" font-size="14.00">7</text>
</g>
<!-- 27&#45;&gt;7 -->
<g id="edge3" class="edge">
<title>27&#45;&gt;7</title>
<path fill="none" stroke="black" d="M125.13,-262.8C114.07,-249.75 97.96,-230.74 85.35,-215.85"/>
<polygon fill="black" stroke="black" points="87.89,-213.43 78.76,-208.06 82.55,-217.96 87.89,-213.43"/>
<text text-anchor="middle" x="110.5" y="-231.8" font-family="Times,serif" font-size="14.00">1</text>
</g>
<!-- 16 -->
<g id="node5" class="node">
<title>16</title>
<ellipse fill="none" stroke="black" cx="138" cy="-192" rx="27" ry="18"/>
<text text-anchor="middle" x="138" y="-188.3" font-family="Times,serif" font-size="14.00">16</text>
</g>
<!-- 27&#45;&gt;16 -->
<g id="edge4" class="edge">
<title>27&#45;&gt;16</title>
<path fill="none" stroke="black" d="M138,-260.8C138,-249.16 138,-233.55 138,-220.24"/>
<polygon fill="black" stroke="black" points="141.5,-220.18 138,-210.18 134.5,-220.18 141.5,-220.18"/>
<text text-anchor="middle" x="141.5" y="-231.8" font-family="Times,serif" font-size="14.00">3</text>
</g>
<!-- 17 -->
<g id="node6" class="node">
<title>17</title>
<ellipse fill="none" stroke="black" cx="210" cy="-192" rx="27" ry="18"/>
<text text-anchor="middle" x="210" y="-188.3" font-family="Times,serif" font-size="14.00">17</text>
</g>
<!-- 36&#45;&gt;17 -->
<g id="edge5" class="edge">
<title>36&#45;&gt;17</title>
<path fill="none" stroke="black" d="M210,-260.8C210,-249.16 210,-233.55 210,-220.24"/>
<polygon fill="black" stroke="black" points="213.5,-220.18 210,-210.18 206.5,-220.18 213.5,-220.18"/>
<text text-anchor="middle" x="213.5" y="-231.8" font-family="Times,serif" font-size="14.00">3</text>
</g>
<!-- 32 -->
<g id="node7" class="node">
<title>32</title>
<ellipse fill="none" stroke="black" cx="27" cy="-105" rx="27" ry="18"/>
<text text-anchor="middle" x="27" y="-101.3" font-family="Times,serif" font-size="14.00">32</text>
</g>
<!-- 7&#45;&gt;32 -->
<g id="edge6" class="edge">
<title>7&#45;&gt;32</title>
<path fill="none" stroke="black" d="M58.48,-174.61C52.87,-162.38 45.1,-145.44 38.68,-131.46"/>
<polygon fill="black" stroke="black" points="41.85,-129.97 34.5,-122.34 35.49,-132.89 41.85,-129.97"/>
<text text-anchor="middle" x="52.5" y="-144.8" font-family="Times,serif" font-size="14.00">7</text>
</g>
<!-- 41 -->
<g id="node8" class="node">
<title>41</title>
<ellipse fill="none" stroke="black" cx="99" cy="-105" rx="27" ry="18"/>
<text text-anchor="middle" x="99" y="-101.3" font-family="Times,serif" font-size="14.00">41</text>
</g>
<!-- 7&#45;&gt;41 -->
<g id="edge7" class="edge">
<title>7&#45;&gt;41</title>
<path fill="none" stroke="black" d="M72.52,-174.21C77.18,-162.22 83.53,-145.85 88.84,-132.16"/>
<polygon fill="black" stroke="black" points="92.14,-133.35 92.49,-122.76 85.61,-130.81 92.14,-133.35"/>
<text text-anchor="middle" x="88.5" y="-144.8" font-family="Times,serif" font-size="14.00">9</text>
</g>
<!-- 42 -->
<g id="node9" class="node">
<title>42</title>
<ellipse fill="none" stroke="black" cx="171" cy="-105" rx="27" ry="18"/>
<text text-anchor="middle" x="171" y="-101.3" font-family="Times,serif" font-size="14.00">42</text>
</g>
<!-- 16&#45;&gt;42 -->
<g id="edge8" class="edge">
<title>16&#45;&gt;42</title>
<path fill="none" stroke="black" d="M144.52,-174.21C149.18,-162.22 155.53,-145.85 160.84,-132.16"/>
<polygon fill="black" stroke="black" points="164.14,-133.35 164.49,-122.76 157.61,-130.81 164.14,-133.35"/>
<text text-anchor="middle" x="160.5" y="-144.8" font-family="Times,serif" font-size="14.00">9</text>
</g>
<!-- 17&#45;&gt;42 -->
<g id="edge9" class="edge">
<title>17&#45;&gt;42</title>
<path fill="none" stroke="black" d="M202.48,-174.61C196.87,-162.38 189.1,-145.44 182.68,-131.46"/>
<polygon fill="black" stroke="black" points="185.85,-129.97 178.5,-122.34 179.49,-132.89 185.85,-129.97"/>
<text text-anchor="middle" x="195.5" y="-144.8" font-family="Times,serif" font-size="14.00">9</text>
</g>
<!-- 12 -->
<g id="node10" class="node">
<title>12</title>
<ellipse fill="none" stroke="green" cx="27" cy="-18" rx="27" ry="18"/>
<text text-anchor="middle" x="27" y="-14.3" font-family="Times,serif" font-size="14.00">12</text>
</g>
<!-- 32&#45;&gt;12 -->
<g id="edge10" class="edge">
<title>32&#45;&gt;12</title>
<path fill="none" stroke="black" d="M27,-86.8C27,-75.16 27,-59.55 27,-46.24"/>
<polygon fill="black" stroke="black" points="30.5,-46.18 27,-36.18 23.5,-46.18 30.5,-46.18"/>
<text text-anchor="middle" x="30.5" y="-57.8" font-family="Times,serif" font-size="14.00">2</text>
</g>
<!-- 22 -->
<g id="node11" class="node">
<title>22</title>
<ellipse fill="none" stroke="green" cx="140" cy="-18" rx="27" ry="18"/>
<text text-anchor="middle" x="140" y="-14.3" font-family="Times,serif" font-size="14.00">22</text>
</g>
<!-- 41&#45;&gt;22 -->
<g id="edge11" class="edge">
<title>41&#45;&gt;22</title>
<path fill="none" stroke="black" d="M106.91,-87.61C112.8,-75.38 120.97,-58.44 127.72,-44.46"/>
<polygon fill="black" stroke="black" points="130.93,-45.87 132.12,-35.34 124.62,-42.82 130.93,-45.87"/>
<text text-anchor="middle" x="125.5" y="-57.8" font-family="Times,serif" font-size="14.00">4</text>
</g>
<!-- 42&#45;&gt;22 -->
<g id="edge12" class="edge">
<title>42&#45;&gt;22</title>
<path fill="none" stroke="black" d="M164.88,-87.21C160.5,-75.22 154.53,-58.85 149.54,-45.16"/>
<polygon fill="black" stroke="black" points="152.83,-43.95 146.11,-35.76 146.25,-46.35 152.83,-43.95"/>
<text text-anchor="middle" x="161.5" y="-57.8" font-family="Times,serif" font-size="14.00">4</text>
</g>
</g>
</svg>
