<?xml version="1.0" encoding="UTF-8" standalone="no"?>
<!DOCTYPE svg PUBLIC "-//W3C//DTD SVG 1.1//EN"
 "http://www.w3.org/Graphics/SVG/1.1/DTD/svg11.dtd">
<!-- Generated by graphviz version 2.50.0 (0)
 -->
<!-- Pages: 1 -->
<svg width="134pt" height="305pt"
 viewBox="0.00 0.00 134.00 305.00" xmlns="http://www.w3.org/2000/svg" xmlns:xlink="http://www.w3.org/1999/xlink">
<g id="graph0" class="graph" transform="scale(1 1) rotate(0) translate(4 301)">
<polygon fill="white" stroke="transparent" points="-4,4 -4,-301 130,-301 130,4 -4,4"/>
<!-- 0 -->
<g id="node1" class="node">
<title>0</title>
<ellipse fill="none" stroke="green" cx="63" cy="-279" rx="27" ry="18"/>
<text text-anchor="middle" x="63" y="-275.3" font-family="Times,serif" font-size="14.00">0</text>
</g>
<!-- 44 -->
<g id="node2" class="node">
<title>44</title>
<ellipse fill="none" stroke="black" cx="63" cy="-192" rx="27" ry="18"/>
<text text-anchor="middle" x="63" y="-188.3" font-family="Times,serif" font-size="14.00">44</text>
</g>
<!-- 0&#45;&gt;44 -->
<g id="edge1" class="edge">
<title>0&#45;&gt;44</title>
<path fill="none" stroke="black" d="M63,-260.8C63,-249.16 63,-233.55 63,-220.24"/>
<polygon fill="black" stroke="black" points="66.5,-220.18 63,-210.18 59.5,-220.18 66.5,-220.18"/>
<text text-anchor="middle" x="66.5" y="-231.8" font-family="Times,serif" font-size="14.00">9</text>
</g>
<!-- 14 -->
<g id="node3" class="node">
<title>14</title>
<ellipse fill="none" stroke="black" cx="27" cy="-105" rx="27" ry="18"/>
<text text-anchor="middle" x="27" y="-101.3" font-family="Times,serif" font-size="14.00">14</text>
</g>
<!-- 44&#45;&gt;14 -->
<g id="edge2" class="edge">
<title>44&#45;&gt;14</title>
<path fill="none" stroke="black" d="M55.89,-174.21C50.78,-162.14 43.79,-145.64 37.97,-131.89"/>
<polygon fill="black" stroke="black" points="41.1,-130.31 33.98,-122.47 34.65,-133.04 41.1,-130.31"/>
<text text-anchor="middle" x="51.5" y="-144.8" font-family="Times,serif" font-size="14.00">2</text>
</g>
<!-- 24 -->
<g id="node4" class="node">
<title>24</title>
<ellipse fill="none" stroke="black" cx="99" cy="-105" rx="27" ry="18"/>
<text text-anchor="middle" x="99" y="-101.3" font-family="Times,serif" font-size="14.00">24</text>
</g>
<!-- 44&#45;&gt;24 -->
<g id="edge3" class="edge">
<title>44&#45;&gt;24</title>
<path fill="none" stroke="black" d="M70.11,-174.21C75.22,-162.14 82.21,-145.64 88.03,-131.89"/>
<polygon fill="black" stroke="black" points="91.35,-133.04 92.02,-122.47 84.9,-130.31 91.35,-133.04"/>
<text text-anchor="middle" x="86.5" y="-144.8" font-family="Times,serif" font-size="14.00">4</text>
</g>
<!-- 11 -->
<g id="node5" class="node">
<title>11</title>
<ellipse fill="none" stroke="green" cx="27" cy="-18" rx="27" ry="18"/>
<text text-anchor="middle" x="27" y="-14.3" font-family="Times,serif" font-size="14.00">11</text>
</g>
<!-- 14&#45;&gt;11 -->
<g id="edge4" class="edge">
<title>14&#45;&gt;11</title>
<path fill="none" stroke="black" d="M27,-86.8C27,-75.16 27,-59.55 27,-46.24"/>
<polygon fill="black" stroke="black" points="30.5,-46.18 27,-36.18 23.5,-46.18 30.5,-46.18"/>
<text text-anchor="middle" x="30.5" y="-57.8" font-family="Times,serif" font-size="14.00">2</text>
</g>
<!-- 12 -->
<g id="node6" class="node">
<title>12</title>
<ellipse fill="none" stroke="green" cx="99" cy="-18" rx="27" ry="18"/>
<text text-anchor="middle" x="99" y="-14.3" font-family="Times,serif" font-size="14.00">12</text>
</g>
<!-- 24&#45;&gt;12 -->
<g id="edge5" class="edge">
<title>24&#45;&gt;12</title>
<path fill="none" stroke="black" d="M99,-86.8C99,-75.16 99,-59.55 99,-46.24"/>
<polygon fill="black" stroke="black" points="102.5,-46.18 99,-36.18 95.5,-46.18 102.5,-46.18"/>
<text text-anchor="middle" x="102.5" y="-57.8" font-family="Times,serif" font-size="14.00">2</text>
</g>
</g>
</svg>
