<?xml version="1.0" encoding="UTF-8" standalone="no"?>
<!DOCTYPE svg PUBLIC "-//W3C//DTD SVG 1.1//EN"
 "http://www.w3.org/Graphics/SVG/1.1/DTD/svg11.dtd">
<!-- Generated by graphviz version 2.50.0 (0)
 -->
<!-- Pages: 1 -->
<svg width="350pt" height="305pt"
 viewBox="0.00 0.00 350.00 305.00" xmlns="http://www.w3.org/2000/svg" xmlns:xlink="http://www.w3.org/1999/xlink">
<g id="graph0" class="graph" transform="scale(1 1) rotate(0) translate(4 301)">
<polygon fill="white" stroke="transparent" points="-4,4 -4,-301 346,-301 346,4 -4,4"/>
<!-- 0 -->
<g id="node1" class="node">
<title>0</title>
<ellipse fill="none" stroke="green" cx="171" cy="-279" rx="27" ry="18"/>
<text text-anchor="middle" x="171" y="-275.3" font-family="Times,serif" font-size="14.00">0</text>
</g>
<!-- 5 -->
<g id="node2" class="node">
<title>5</title>
<ellipse fill="none" stroke="black" cx="81" cy="-192" rx="27" ry="18"/>
<text text-anchor="middle" x="81" y="-188.3" font-family="Times,serif" font-size="14.00">5</text>
</g>
<!-- 0&#45;&gt;5 -->
<g id="edge1" class="edge">
<title>0&#45;&gt;5</title>
<path fill="none" stroke="black" d="M156.14,-263.96C141.81,-250.43 119.93,-229.77 103.47,-214.22"/>
<polygon fill="black" stroke="black" points="105.56,-211.38 95.88,-207.06 100.75,-216.47 105.56,-211.38"/>
<text text-anchor="middle" x="135.5" y="-231.8" font-family="Times,serif" font-size="14.00">1</text>
</g>
<!-- 26 -->
<g id="node3" class="node">
<title>26</title>
<ellipse fill="none" stroke="black" cx="171" cy="-192" rx="27" ry="18"/>
<text text-anchor="middle" x="171" y="-188.3" font-family="Times,serif" font-size="14.00">26</text>
</g>
<!-- 0&#45;&gt;26 -->
<g id="edge2" class="edge">
<title>0&#45;&gt;26</title>
<path fill="none" stroke="black" d="M171,-260.8C171,-249.16 171,-233.55 171,-220.24"/>
<polygon fill="black" stroke="black" points="174.5,-220.18 171,-210.18 167.5,-220.18 174.5,-220.18"/>
<text text-anchor="middle" x="174.5" y="-231.8" font-family="Times,serif" font-size="14.00">5</text>
</g>
<!-- 31 -->
<g id="node4" class="node">
<title>31</title>
<ellipse fill="none" stroke="black" cx="258" cy="-192" rx="27" ry="18"/>
<text text-anchor="middle" x="258" y="-188.3" font-family="Times,serif" font-size="14.00">31</text>
</g>
<!-- 0&#45;&gt;31 -->
<g id="edge3" class="edge">
<title>0&#45;&gt;31</title>
<path fill="none" stroke="black" d="M185.76,-263.58C199.59,-250.07 220.44,-229.7 236.19,-214.31"/>
<polygon fill="black" stroke="black" points="238.75,-216.7 243.46,-207.21 233.86,-211.69 238.75,-216.7"/>
<text text-anchor="middle" x="222.5" y="-231.8" font-family="Times,serif" font-size="14.00">6</text>
</g>
<!-- 16 -->
<g id="node5" class="node">
<title>16</title>
<ellipse fill="none" stroke="black" cx="27" cy="-105" rx="27" ry="18"/>
<text text-anchor="middle" x="27" y="-101.3" font-family="Times,serif" font-size="14.00">16</text>
</g>
<!-- 5&#45;&gt;16 -->
<g id="edge4" class="edge">
<title>5&#45;&gt;16</title>
<path fill="none" stroke="black" d="M70.84,-175.01C62.92,-162.55 51.78,-145.01 42.72,-130.74"/>
<polygon fill="black" stroke="black" points="45.43,-128.48 37.11,-121.92 39.52,-132.23 45.43,-128.48"/>
<text text-anchor="middle" x="61.5" y="-144.8" font-family="Times,serif" font-size="14.00">3</text>
</g>
<!-- 13 -->
<g id="node6" class="node">
<title>13</title>
<ellipse fill="none" stroke="black" cx="171" cy="-105" rx="27" ry="18"/>
<text text-anchor="middle" x="171" y="-101.3" font-family="Times,serif" font-size="14.00">13</text>
</g>
<!-- 26&#45;&gt;13 -->
<g id="edge5" class="edge">
<title>26&#45;&gt;13</title>
<path fill="none" stroke="black" d="M171,-173.8C171,-162.16 171,-146.55 171,-133.24"/>
<polygon fill="black" stroke="black" points="174.5,-133.18 171,-123.18 167.5,-133.18 174.5,-133.18"/>
<text text-anchor="middle" x="174.5" y="-144.8" font-family="Times,serif" font-size="14.00">2</text>
</g>
<!-- 18 -->
<g id="node7" class="node">
<title>18</title>
<ellipse fill="none" stroke="black" cx="99" cy="-105" rx="27" ry="18"/>
<text text-anchor="middle" x="99" y="-101.3" font-family="Times,serif" font-size="14.00">18</text>
</g>
<!-- 26&#45;&gt;18 -->
<g id="edge6" class="edge">
<title>26&#45;&gt;18</title>
<path fill="none" stroke="black" d="M158.13,-175.8C147.07,-162.75 130.96,-143.74 118.35,-128.85"/>
<polygon fill="black" stroke="black" points="120.89,-126.43 111.76,-121.06 115.55,-130.96 120.89,-126.43"/>
<text text-anchor="middle" x="143.5" y="-144.8" font-family="Times,serif" font-size="14.00">3</text>
</g>
<!-- 44 -->
<g id="node8" class="node">
<title>44</title>
<ellipse fill="none" stroke="black" cx="243" cy="-105" rx="27" ry="18"/>
<text text-anchor="middle" x="243" y="-101.3" font-family="Times,serif" font-size="14.00">44</text>
</g>
<!-- 26&#45;&gt;44 -->
<g id="edge7" class="edge">
<title>26&#45;&gt;44</title>
<path fill="none" stroke="black" d="M183.87,-175.8C194.93,-162.75 211.04,-143.74 223.65,-128.85"/>
<polygon fill="black" stroke="black" points="226.45,-130.96 230.24,-121.06 221.11,-126.43 226.45,-130.96"/>
<text text-anchor="middle" x="214.5" y="-144.8" font-family="Times,serif" font-size="14.00">8</text>
</g>
<!-- 3 -->
<g id="node9" class="node">
<title>3</title>
<ellipse fill="none" stroke="black" cx="315" cy="-105" rx="27" ry="18"/>
<text text-anchor="middle" x="315" y="-101.3" font-family="Times,serif" font-size="14.00">3</text>
</g>
<!-- 31&#45;&gt;3 -->
<g id="edge8" class="edge">
<title>31&#45;&gt;3</title>
<path fill="none" stroke="black" d="M268.72,-175.01C277.21,-162.35 289.21,-144.45 298.87,-130.06"/>
<polygon fill="black" stroke="black" points="301.86,-131.88 304.52,-121.63 296.04,-127.99 301.86,-131.88"/>
<text text-anchor="middle" x="292.5" y="-144.8" font-family="Times,serif" font-size="14.00">0</text>
</g>
<!-- 12 -->
<g id="node11" class="node">
<title>12</title>
<ellipse fill="none" stroke="green" cx="64" cy="-18" rx="27" ry="18"/>
<text text-anchor="middle" x="64" y="-14.3" font-family="Times,serif" font-size="14.00">12</text>
</g>
<!-- 16&#45;&gt;12 -->
<g id="edge12" class="edge">
<title>16&#45;&gt;12</title>
<path fill="none" stroke="black" d="M34.13,-87.61C39.37,-75.58 46.6,-58.98 52.63,-45.13"/>
<polygon fill="black" stroke="black" points="55.98,-46.19 56.76,-35.63 49.56,-43.4 55.98,-46.19"/>
<text text-anchor="middle" x="51.5" y="-57.8" font-family="Times,serif" font-size="14.00">2</text>
</g>
<!-- 22 -->
<g id="node10" class="node">
<title>22</title>
<ellipse fill="none" stroke="green" cx="171" cy="-18" rx="27" ry="18"/>
<text text-anchor="middle" x="171" y="-14.3" font-family="Times,serif" font-size="14.00">22</text>
</g>
<!-- 13&#45;&gt;22 -->
<g id="edge9" class="edge">
<title>13&#45;&gt;22</title>
<path fill="none" stroke="black" d="M171,-86.8C171,-75.16 171,-59.55 171,-46.24"/>
<polygon fill="black" stroke="black" points="174.5,-46.18 171,-36.18 167.5,-46.18 174.5,-46.18"/>
<text text-anchor="middle" x="174.5" y="-57.8" font-family="Times,serif" font-size="14.00">4</text>
</g>
<!-- 18&#45;&gt;12 -->
<g id="edge10" class="edge">
<title>18&#45;&gt;12</title>
<path fill="none" stroke="black" d="M92.09,-87.21C87.12,-75.14 80.32,-58.64 74.66,-44.89"/>
<polygon fill="black" stroke="black" points="77.83,-43.38 70.78,-35.47 71.35,-46.05 77.83,-43.38"/>
<text text-anchor="middle" x="87.5" y="-57.8" font-family="Times,serif" font-size="14.00">2</text>
</g>
<!-- 20 -->
<g id="node12" class="node">
<title>20</title>
<ellipse fill="none" stroke="green" cx="243" cy="-18" rx="27" ry="18"/>
<text text-anchor="middle" x="243" y="-14.3" font-family="Times,serif" font-size="14.00">20</text>
</g>
<!-- 44&#45;&gt;20 -->
<g id="edge11" class="edge">
<title>44&#45;&gt;20</title>
<path fill="none" stroke="black" d="M243,-86.8C243,-75.16 243,-59.55 243,-46.24"/>
<polygon fill="black" stroke="black" points="246.5,-46.18 243,-36.18 239.5,-46.18 246.5,-46.18"/>
<text text-anchor="middle" x="246.5" y="-57.8" font-family="Times,serif" font-size="14.00">3</text>
</g>
<!-- 21 -->
<g id="node13" class="node">
<title>21</title>
<ellipse fill="none" stroke="green" cx="315" cy="-18" rx="27" ry="18"/>
<text text-anchor="middle" x="315" y="-14.3" font-family="Times,serif" font-size="14.00">21</text>
</g>
<!-- 3&#45;&gt;21 -->
<g id="edge13" class="edge">
<title>3&#45;&gt;21</title>
<path fill="none" stroke="black" d="M315,-86.8C315,-75.16 315,-59.55 315,-46.24"/>
<polygon fill="black" stroke="black" points="318.5,-46.18 315,-36.18 311.5,-46.18 318.5,-46.18"/>
<text text-anchor="middle" x="318.5" y="-57.8" font-family="Times,serif" font-size="14.00">4</text>
</g>
</g>
</svg>
