<?xml version="1.0" encoding="UTF-8" standalone="no"?>
<!DOCTYPE svg PUBLIC "-//W3C//DTD SVG 1.1//EN"
 "http://www.w3.org/Graphics/SVG/1.1/DTD/svg11.dtd">
<!-- Generated by graphviz version 2.50.0 (0)
 -->
<!-- Pages: 1 -->
<svg width="206pt" height="305pt"
 viewBox="0.00 0.00 206.00 305.00" xmlns="http://www.w3.org/2000/svg" xmlns:xlink="http://www.w3.org/1999/xlink">
<g id="graph0" class="graph" transform="scale(1 1) rotate(0) translate(4 301)">
<polygon fill="white" stroke="transparent" points="-4,4 -4,-301 202,-301 202,4 -4,4"/>
<!-- 0 -->
<g id="node1" class="node">
<title>0</title>
<ellipse fill="none" stroke="green" cx="135" cy="-279" rx="27" ry="18"/>
<text text-anchor="middle" x="135" y="-275.3" font-family="Times,serif" font-size="14.00">0</text>
</g>
<!-- 17 -->
<g id="node2" class="node">
<title>17</title>
<ellipse fill="none" stroke="black" cx="99" cy="-192" rx="27" ry="18"/>
<text text-anchor="middle" x="99" y="-188.3" font-family="Times,serif" font-size="14.00">17</text>
</g>
<!-- 0&#45;&gt;17 -->
<g id="edge1" class="edge">
<title>0&#45;&gt;17</title>
<path fill="none" stroke="black" d="M127.89,-261.21C122.78,-249.14 115.79,-232.64 109.97,-218.89"/>
<polygon fill="black" stroke="black" points="113.1,-217.31 105.98,-209.47 106.65,-220.04 113.1,-217.31"/>
<text text-anchor="middle" x="122.5" y="-231.8" font-family="Times,serif" font-size="14.00">3</text>
</g>
<!-- 34 -->
<g id="node3" class="node">
<title>34</title>
<ellipse fill="none" stroke="black" cx="171" cy="-192" rx="27" ry="18"/>
<text text-anchor="middle" x="171" y="-188.3" font-family="Times,serif" font-size="14.00">34</text>
</g>
<!-- 0&#45;&gt;34 -->
<g id="edge2" class="edge">
<title>0&#45;&gt;34</title>
<path fill="none" stroke="black" d="M142.11,-261.21C147.22,-249.14 154.21,-232.64 160.03,-218.89"/>
<polygon fill="black" stroke="black" points="163.35,-220.04 164.02,-209.47 156.9,-217.31 163.35,-220.04"/>
<text text-anchor="middle" x="158.5" y="-231.8" font-family="Times,serif" font-size="14.00">6</text>
</g>
<!-- 30 -->
<g id="node4" class="node">
<title>30</title>
<ellipse fill="none" stroke="black" cx="27" cy="-105" rx="27" ry="18"/>
<text text-anchor="middle" x="27" y="-101.3" font-family="Times,serif" font-size="14.00">30</text>
</g>
<!-- 17&#45;&gt;30 -->
<g id="edge3" class="edge">
<title>17&#45;&gt;30</title>
<path fill="none" stroke="black" d="M86.13,-175.8C75.07,-162.75 58.96,-143.74 46.35,-128.85"/>
<polygon fill="black" stroke="black" points="48.89,-126.43 39.76,-121.06 43.55,-130.96 48.89,-126.43"/>
<text text-anchor="middle" x="71.5" y="-144.8" font-family="Times,serif" font-size="14.00">5</text>
</g>
<!-- 53 -->
<g id="node5" class="node">
<title>53</title>
<ellipse fill="none" stroke="black" cx="99" cy="-105" rx="27" ry="18"/>
<text text-anchor="middle" x="99" y="-101.3" font-family="Times,serif" font-size="14.00">53</text>
</g>
<!-- 17&#45;&gt;53 -->
<g id="edge4" class="edge">
<title>17&#45;&gt;53</title>
<path fill="none" stroke="black" d="M99,-173.8C99,-162.16 99,-146.55 99,-133.24"/>
<polygon fill="black" stroke="black" points="102.5,-133.18 99,-123.18 95.5,-133.18 102.5,-133.18"/>
<text text-anchor="middle" x="102.5" y="-144.8" font-family="Times,serif" font-size="14.00">9</text>
</g>
<!-- 49 -->
<g id="node6" class="node">
<title>49</title>
<ellipse fill="none" stroke="black" cx="171" cy="-105" rx="27" ry="18"/>
<text text-anchor="middle" x="171" y="-101.3" font-family="Times,serif" font-size="14.00">49</text>
</g>
<!-- 34&#45;&gt;49 -->
<g id="edge5" class="edge">
<title>34&#45;&gt;49</title>
<path fill="none" stroke="black" d="M171,-173.8C171,-162.16 171,-146.55 171,-133.24"/>
<polygon fill="black" stroke="black" points="174.5,-133.18 171,-123.18 167.5,-133.18 174.5,-133.18"/>
<text text-anchor="middle" x="174.5" y="-144.8" font-family="Times,serif" font-size="14.00">8</text>
</g>
<!-- 20 -->
<g id="node7" class="node">
<title>20</title>
<ellipse fill="none" stroke="green" cx="27" cy="-18" rx="27" ry="18"/>
<text text-anchor="middle" x="27" y="-14.3" font-family="Times,serif" font-size="14.00">20</text>
</g>
<!-- 30&#45;&gt;20 -->
<g id="edge6" class="edge">
<title>30&#45;&gt;20</title>
<path fill="none" stroke="black" d="M27,-86.8C27,-75.16 27,-59.55 27,-46.24"/>
<polygon fill="black" stroke="black" points="30.5,-46.18 27,-36.18 23.5,-46.18 30.5,-46.18"/>
<text text-anchor="middle" x="30.5" y="-57.8" font-family="Times,serif" font-size="14.00">3</text>
</g>
<!-- 11 -->
<g id="node8" class="node">
<title>11</title>
<ellipse fill="none" stroke="green" cx="99" cy="-18" rx="27" ry="18"/>
<text text-anchor="middle" x="99" y="-14.3" font-family="Times,serif" font-size="14.00">11</text>
</g>
<!-- 53&#45;&gt;11 -->
<g id="edge7" class="edge">
<title>53&#45;&gt;11</title>
<path fill="none" stroke="black" d="M99,-86.8C99,-75.16 99,-59.55 99,-46.24"/>
<polygon fill="black" stroke="black" points="102.5,-46.18 99,-36.18 95.5,-46.18 102.5,-46.18"/>
<text text-anchor="middle" x="102.5" y="-57.8" font-family="Times,serif" font-size="14.00">1</text>
</g>
<!-- 22 -->
<g id="node9" class="node">
<title>22</title>
<ellipse fill="none" stroke="green" cx="171" cy="-18" rx="27" ry="18"/>
<text text-anchor="middle" x="171" y="-14.3" font-family="Times,serif" font-size="14.00">22</text>
</g>
<!-- 49&#45;&gt;22 -->
<g id="edge8" class="edge">
<title>49&#45;&gt;22</title>
<path fill="none" stroke="black" d="M171,-86.8C171,-75.16 171,-59.55 171,-46.24"/>
<polygon fill="black" stroke="black" points="174.5,-46.18 171,-36.18 167.5,-46.18 174.5,-46.18"/>
<text text-anchor="middle" x="174.5" y="-57.8" font-family="Times,serif" font-size="14.00">3</text>
</g>
</g>
</svg>
