<?xml version="1.0" encoding="UTF-8" standalone="no"?>
<!DOCTYPE svg PUBLIC "-//W3C//DTD SVG 1.1//EN"
 "http://www.w3.org/Graphics/SVG/1.1/DTD/svg11.dtd">
<!-- Generated by graphviz version 2.50.0 (0)
 -->
<!-- Pages: 1 -->
<svg width="278pt" height="392pt"
 viewBox="0.00 0.00 278.00 392.00" xmlns="http://www.w3.org/2000/svg" xmlns:xlink="http://www.w3.org/1999/xlink">
<g id="graph0" class="graph" transform="scale(1 1) rotate(0) translate(4 388)">
<polygon fill="white" stroke="transparent" points="-4,4 -4,-388 274,-388 274,4 -4,4"/>
<!-- 0 -->
<g id="node1" class="node">
<title>0</title>
<ellipse fill="none" stroke="green" cx="99" cy="-366" rx="27" ry="18"/>
<text text-anchor="middle" x="99" y="-362.3" font-family="Times,serif" font-size="14.00">0</text>
</g>
<!-- 7 -->
<g id="node2" class="node">
<title>7</title>
<ellipse fill="none" stroke="black" cx="27" cy="-279" rx="27" ry="18"/>
<text text-anchor="middle" x="27" y="-275.3" font-family="Times,serif" font-size="14.00">7</text>
</g>
<!-- 0&#45;&gt;7 -->
<g id="edge1" class="edge">
<title>0&#45;&gt;7</title>
<path fill="none" stroke="black" d="M86.13,-349.8C75.07,-336.75 58.96,-317.74 46.35,-302.85"/>
<polygon fill="black" stroke="black" points="48.89,-300.43 39.76,-295.06 43.55,-304.96 48.89,-300.43"/>
<text text-anchor="middle" x="71.5" y="-318.8" font-family="Times,serif" font-size="14.00">1</text>
</g>
<!-- 36 -->
<g id="node3" class="node">
<title>36</title>
<ellipse fill="none" stroke="black" cx="99" cy="-279" rx="27" ry="18"/>
<text text-anchor="middle" x="99" y="-275.3" font-family="Times,serif" font-size="14.00">36</text>
</g>
<!-- 0&#45;&gt;36 -->
<g id="edge2" class="edge">
<title>0&#45;&gt;36</title>
<path fill="none" stroke="black" d="M99,-347.8C99,-336.16 99,-320.55 99,-307.24"/>
<polygon fill="black" stroke="black" points="102.5,-307.18 99,-297.18 95.5,-307.18 102.5,-307.18"/>
<text text-anchor="middle" x="102.5" y="-318.8" font-family="Times,serif" font-size="14.00">5</text>
</g>
<!-- 43 -->
<g id="node4" class="node">
<title>43</title>
<ellipse fill="none" stroke="black" cx="171" cy="-279" rx="27" ry="18"/>
<text text-anchor="middle" x="171" y="-275.3" font-family="Times,serif" font-size="14.00">43</text>
</g>
<!-- 0&#45;&gt;43 -->
<g id="edge3" class="edge">
<title>0&#45;&gt;43</title>
<path fill="none" stroke="black" d="M111.87,-349.8C122.93,-336.75 139.04,-317.74 151.65,-302.85"/>
<polygon fill="black" stroke="black" points="154.45,-304.96 158.24,-295.06 149.11,-300.43 154.45,-304.96"/>
<text text-anchor="middle" x="143.5" y="-318.8" font-family="Times,serif" font-size="14.00">6</text>
</g>
<!-- 51 -->
<g id="node5" class="node">
<title>51</title>
<ellipse fill="none" stroke="black" cx="27" cy="-192" rx="27" ry="18"/>
<text text-anchor="middle" x="27" y="-188.3" font-family="Times,serif" font-size="14.00">51</text>
</g>
<!-- 7&#45;&gt;51 -->
<g id="edge4" class="edge">
<title>7&#45;&gt;51</title>
<path fill="none" stroke="black" d="M27,-260.8C27,-249.16 27,-233.55 27,-220.24"/>
<polygon fill="black" stroke="black" points="30.5,-220.18 27,-210.18 23.5,-220.18 30.5,-220.18"/>
<text text-anchor="middle" x="30.5" y="-231.8" font-family="Times,serif" font-size="14.00">7</text>
</g>
<!-- 61 -->
<g id="node6" class="node">
<title>61</title>
<ellipse fill="none" stroke="black" cx="99" cy="-192" rx="27" ry="18"/>
<text text-anchor="middle" x="99" y="-188.3" font-family="Times,serif" font-size="14.00">61</text>
</g>
<!-- 36&#45;&gt;61 -->
<g id="edge5" class="edge">
<title>36&#45;&gt;61</title>
<path fill="none" stroke="black" d="M99,-260.8C99,-249.16 99,-233.55 99,-220.24"/>
<polygon fill="black" stroke="black" points="102.5,-220.18 99,-210.18 95.5,-220.18 102.5,-220.18"/>
<text text-anchor="middle" x="102.5" y="-231.8" font-family="Times,serif" font-size="14.00">8</text>
</g>
<!-- 33 -->
<g id="node7" class="node">
<title>33</title>
<ellipse fill="none" stroke="black" cx="171" cy="-192" rx="27" ry="18"/>
<text text-anchor="middle" x="171" y="-188.3" font-family="Times,serif" font-size="14.00">33</text>
</g>
<!-- 43&#45;&gt;33 -->
<g id="edge6" class="edge">
<title>43&#45;&gt;33</title>
<path fill="none" stroke="black" d="M171,-260.8C171,-249.16 171,-233.55 171,-220.24"/>
<polygon fill="black" stroke="black" points="174.5,-220.18 171,-210.18 167.5,-220.18 174.5,-220.18"/>
<text text-anchor="middle" x="174.5" y="-231.8" font-family="Times,serif" font-size="14.00">4</text>
</g>
<!-- 69 -->
<g id="node8" class="node">
<title>69</title>
<ellipse fill="none" stroke="black" cx="243" cy="-192" rx="27" ry="18"/>
<text text-anchor="middle" x="243" y="-188.3" font-family="Times,serif" font-size="14.00">69</text>
</g>
<!-- 43&#45;&gt;69 -->
<g id="edge7" class="edge">
<title>43&#45;&gt;69</title>
<path fill="none" stroke="black" d="M183.87,-262.8C194.93,-249.75 211.04,-230.74 223.65,-215.85"/>
<polygon fill="black" stroke="black" points="226.45,-217.96 230.24,-208.06 221.11,-213.43 226.45,-217.96"/>
<text text-anchor="middle" x="214.5" y="-231.8" font-family="Times,serif" font-size="14.00">9</text>
</g>
<!-- 5 -->
<g id="node12" class="node">
<title>5</title>
<ellipse fill="none" stroke="black" cx="27" cy="-105" rx="27" ry="18"/>
<text text-anchor="middle" x="27" y="-101.3" font-family="Times,serif" font-size="14.00">5</text>
</g>
<!-- 51&#45;&gt;5 -->
<g id="edge11" class="edge">
<title>51&#45;&gt;5</title>
<path fill="none" stroke="black" d="M27,-173.8C27,-162.16 27,-146.55 27,-133.24"/>
<polygon fill="black" stroke="black" points="30.5,-133.18 27,-123.18 23.5,-133.18 30.5,-133.18"/>
<text text-anchor="middle" x="30.5" y="-144.8" font-family="Times,serif" font-size="14.00">0</text>
</g>
<!-- 6 -->
<g id="node11" class="node">
<title>6</title>
<ellipse fill="none" stroke="black" cx="99" cy="-105" rx="27" ry="18"/>
<text text-anchor="middle" x="99" y="-101.3" font-family="Times,serif" font-size="14.00">6</text>
</g>
<!-- 61&#45;&gt;6 -->
<g id="edge10" class="edge">
<title>61&#45;&gt;6</title>
<path fill="none" stroke="black" d="M99,-173.8C99,-162.16 99,-146.55 99,-133.24"/>
<polygon fill="black" stroke="black" points="102.5,-133.18 99,-123.18 95.5,-133.18 102.5,-133.18"/>
<text text-anchor="middle" x="102.5" y="-144.8" font-family="Times,serif" font-size="14.00">0</text>
</g>
<!-- 68 -->
<g id="node9" class="node">
<title>68</title>
<ellipse fill="none" stroke="black" cx="171" cy="-105" rx="27" ry="18"/>
<text text-anchor="middle" x="171" y="-101.3" font-family="Times,serif" font-size="14.00">68</text>
</g>
<!-- 33&#45;&gt;68 -->
<g id="edge8" class="edge">
<title>33&#45;&gt;68</title>
<path fill="none" stroke="black" d="M171,-173.8C171,-162.16 171,-146.55 171,-133.24"/>
<polygon fill="black" stroke="black" points="174.5,-133.18 171,-123.18 167.5,-133.18 174.5,-133.18"/>
<text text-anchor="middle" x="174.5" y="-144.8" font-family="Times,serif" font-size="14.00">9</text>
</g>
<!-- 50 -->
<g id="node10" class="node">
<title>50</title>
<ellipse fill="none" stroke="black" cx="243" cy="-105" rx="27" ry="18"/>
<text text-anchor="middle" x="243" y="-101.3" font-family="Times,serif" font-size="14.00">50</text>
</g>
<!-- 69&#45;&gt;50 -->
<g id="edge9" class="edge">
<title>69&#45;&gt;50</title>
<path fill="none" stroke="black" d="M243,-173.8C243,-162.16 243,-146.55 243,-133.24"/>
<polygon fill="black" stroke="black" points="246.5,-133.18 243,-123.18 239.5,-133.18 246.5,-133.18"/>
<text text-anchor="middle" x="246.5" y="-144.8" font-family="Times,serif" font-size="14.00">6</text>
</g>
<!-- 21 -->
<g id="node13" class="node">
<title>21</title>
<ellipse fill="none" stroke="green" cx="171" cy="-18" rx="27" ry="18"/>
<text text-anchor="middle" x="171" y="-14.3" font-family="Times,serif" font-size="14.00">21</text>
</g>
<!-- 68&#45;&gt;21 -->
<g id="edge12" class="edge">
<title>68&#45;&gt;21</title>
<path fill="none" stroke="black" d="M171,-86.8C171,-75.16 171,-59.55 171,-46.24"/>
<polygon fill="black" stroke="black" points="174.5,-46.18 171,-36.18 167.5,-46.18 174.5,-46.18"/>
<text text-anchor="middle" x="174.5" y="-57.8" font-family="Times,serif" font-size="14.00">2</text>
</g>
<!-- 12 -->
<g id="node14" class="node">
<title>12</title>
<ellipse fill="none" stroke="green" cx="243" cy="-18" rx="27" ry="18"/>
<text text-anchor="middle" x="243" y="-14.3" font-family="Times,serif" font-size="14.00">12</text>
</g>
<!-- 50&#45;&gt;12 -->
<g id="edge13" class="edge">
<title>50&#45;&gt;12</title>
<path fill="none" stroke="black" d="M243,-86.8C243,-75.16 243,-59.55 243,-46.24"/>
<polygon fill="black" stroke="black" points="246.5,-46.18 243,-36.18 239.5,-46.18 246.5,-46.18"/>
<text text-anchor="middle" x="246.5" y="-57.8" font-family="Times,serif" font-size="14.00">1</text>
</g>
<!-- 22 -->
<g id="node15" class="node">
<title>22</title>
<ellipse fill="none" stroke="green" cx="64" cy="-18" rx="27" ry="18"/>
<text text-anchor="middle" x="64" y="-14.3" font-family="Times,serif" font-size="14.00">22</text>
</g>
<!-- 6&#45;&gt;22 -->
<g id="edge15" class="edge">
<title>6&#45;&gt;22</title>
<path fill="none" stroke="black" d="M92.09,-87.21C87.12,-75.14 80.32,-58.64 74.66,-44.89"/>
<polygon fill="black" stroke="black" points="77.83,-43.38 70.78,-35.47 71.35,-46.05 77.83,-43.38"/>
<text text-anchor="middle" x="87.5" y="-57.8" font-family="Times,serif" font-size="14.00">3</text>
</g>
<!-- 5&#45;&gt;22 -->
<g id="edge14" class="edge">
<title>5&#45;&gt;22</title>
<path fill="none" stroke="black" d="M34.13,-87.61C39.37,-75.58 46.6,-58.98 52.63,-45.13"/>
<polygon fill="black" stroke="black" points="55.98,-46.19 56.76,-35.63 49.56,-43.4 55.98,-46.19"/>
<text text-anchor="middle" x="51.5" y="-57.8" font-family="Times,serif" font-size="14.00">3</text>
</g>
</g>
</svg>
