<?xml version="1.0" encoding="UTF-8" standalone="no"?>
<!DOCTYPE svg PUBLIC "-//W3C//DTD SVG 1.1//EN"
 "http://www.w3.org/Graphics/SVG/1.1/DTD/svg11.dtd">
<!-- Generated by graphviz version 2.50.0 (0)
 -->
<!-- Pages: 1 -->
<svg width="134pt" height="305pt"
 viewBox="0.00 0.00 134.00 305.00" xmlns="http://www.w3.org/2000/svg" xmlns:xlink="http://www.w3.org/1999/xlink">
<g id="graph0" class="graph" transform="scale(1 1) rotate(0) translate(4 301)">
<polygon fill="white" stroke="transparent" points="-4,4 -4,-301 130,-301 130,4 -4,4"/>
<!-- 0 -->
<g id="node1" class="node">
<title>0</title>
<ellipse fill="none" stroke="green" cx="63" cy="-279" rx="27" ry="18"/>
<text text-anchor="middle" x="63" y="-275.3" font-family="Times,serif" font-size="14.00">0</text>
</g>
<!-- 31 -->
<g id="node2" class="node">
<title>31</title>
<ellipse fill="none" stroke="black" cx="27" cy="-192" rx="27" ry="18"/>
<text text-anchor="middle" x="27" y="-188.3" font-family="Times,serif" font-size="14.00">31</text>
</g>
<!-- 0&#45;&gt;31 -->
<g id="edge1" class="edge">
<title>0&#45;&gt;31</title>
<path fill="none" stroke="black" d="M55.89,-261.21C50.78,-249.14 43.79,-232.64 37.97,-218.89"/>
<polygon fill="black" stroke="black" points="41.1,-217.31 33.98,-209.47 34.65,-220.04 41.1,-217.31"/>
<text text-anchor="middle" x="51.5" y="-231.8" font-family="Times,serif" font-size="14.00">4</text>
</g>
<!-- 70 -->
<g id="node3" class="node">
<title>70</title>
<ellipse fill="none" stroke="black" cx="99" cy="-192" rx="27" ry="18"/>
<text text-anchor="middle" x="99" y="-188.3" font-family="Times,serif" font-size="14.00">70</text>
</g>
<!-- 0&#45;&gt;70 -->
<g id="edge2" class="edge">
<title>0&#45;&gt;70</title>
<path fill="none" stroke="black" d="M70.11,-261.21C75.22,-249.14 82.21,-232.64 88.03,-218.89"/>
<polygon fill="black" stroke="black" points="91.35,-220.04 92.02,-209.47 84.9,-217.31 91.35,-220.04"/>
<text text-anchor="middle" x="86.5" y="-231.8" font-family="Times,serif" font-size="14.00">9</text>
</g>
<!-- 42 -->
<g id="node4" class="node">
<title>42</title>
<ellipse fill="none" stroke="black" cx="27" cy="-105" rx="27" ry="18"/>
<text text-anchor="middle" x="27" y="-101.3" font-family="Times,serif" font-size="14.00">42</text>
</g>
<!-- 31&#45;&gt;42 -->
<g id="edge3" class="edge">
<title>31&#45;&gt;42</title>
<path fill="none" stroke="black" d="M27,-173.8C27,-162.16 27,-146.55 27,-133.24"/>
<polygon fill="black" stroke="black" points="30.5,-133.18 27,-123.18 23.5,-133.18 30.5,-133.18"/>
<text text-anchor="middle" x="30.5" y="-144.8" font-family="Times,serif" font-size="14.00">5</text>
</g>
<!-- 46 -->
<g id="node5" class="node">
<title>46</title>
<ellipse fill="none" stroke="black" cx="99" cy="-105" rx="27" ry="18"/>
<text text-anchor="middle" x="99" y="-101.3" font-family="Times,serif" font-size="14.00">46</text>
</g>
<!-- 70&#45;&gt;46 -->
<g id="edge4" class="edge">
<title>70&#45;&gt;46</title>
<path fill="none" stroke="black" d="M99,-173.8C99,-162.16 99,-146.55 99,-133.24"/>
<polygon fill="black" stroke="black" points="102.5,-133.18 99,-123.18 95.5,-133.18 102.5,-133.18"/>
<text text-anchor="middle" x="102.5" y="-144.8" font-family="Times,serif" font-size="14.00">5</text>
</g>
<!-- 12 -->
<g id="node7" class="node">
<title>12</title>
<ellipse fill="none" stroke="green" cx="27" cy="-18" rx="27" ry="18"/>
<text text-anchor="middle" x="27" y="-14.3" font-family="Times,serif" font-size="14.00">12</text>
</g>
<!-- 42&#45;&gt;12 -->
<g id="edge6" class="edge">
<title>42&#45;&gt;12</title>
<path fill="none" stroke="black" d="M27,-86.8C27,-75.16 27,-59.55 27,-46.24"/>
<polygon fill="black" stroke="black" points="30.5,-46.18 27,-36.18 23.5,-46.18 30.5,-46.18"/>
<text text-anchor="middle" x="30.5" y="-57.8" font-family="Times,serif" font-size="14.00">1</text>
</g>
<!-- 20 -->
<g id="node6" class="node">
<title>20</title>
<ellipse fill="none" stroke="green" cx="99" cy="-18" rx="27" ry="18"/>
<text text-anchor="middle" x="99" y="-14.3" font-family="Times,serif" font-size="14.00">20</text>
</g>
<!-- 46&#45;&gt;20 -->
<g id="edge5" class="edge">
<title>46&#45;&gt;20</title>
<path fill="none" stroke="black" d="M99,-86.8C99,-75.16 99,-59.55 99,-46.24"/>
<polygon fill="black" stroke="black" points="102.5,-46.18 99,-36.18 95.5,-46.18 102.5,-46.18"/>
<text text-anchor="middle" x="102.5" y="-57.8" font-family="Times,serif" font-size="14.00">2</text>
</g>
</g>
</svg>
