<?xml version="1.0" encoding="UTF-8" standalone="no"?>
<!DOCTYPE svg PUBLIC "-//W3C//DTD SVG 1.1//EN"
 "http://www.w3.org/Graphics/SVG/1.1/DTD/svg11.dtd">
<!-- Generated by graphviz version 2.50.0 (0)
 -->
<!-- Pages: 1 -->
<svg width="206pt" height="305pt"
 viewBox="0.00 0.00 206.00 305.00" xmlns="http://www.w3.org/2000/svg" xmlns:xlink="http://www.w3.org/1999/xlink">
<g id="graph0" class="graph" transform="scale(1 1) rotate(0) translate(4 301)">
<polygon fill="white" stroke="transparent" points="-4,4 -4,-301 202,-301 202,4 -4,4"/>
<!-- 0 -->
<g id="node1" class="node">
<title>0</title>
<ellipse fill="none" stroke="green" cx="99" cy="-279" rx="27" ry="18"/>
<text text-anchor="middle" x="99" y="-275.3" font-family="Times,serif" font-size="14.00">0</text>
</g>
<!-- 17 -->
<g id="node2" class="node">
<title>17</title>
<ellipse fill="none" stroke="black" cx="27" cy="-192" rx="27" ry="18"/>
<text text-anchor="middle" x="27" y="-188.3" font-family="Times,serif" font-size="14.00">17</text>
</g>
<!-- 0&#45;&gt;17 -->
<g id="edge1" class="edge">
<title>0&#45;&gt;17</title>
<path fill="none" stroke="black" d="M86.13,-262.8C75.07,-249.75 58.96,-230.74 46.35,-215.85"/>
<polygon fill="black" stroke="black" points="48.89,-213.43 39.76,-208.06 43.55,-217.96 48.89,-213.43"/>
<text text-anchor="middle" x="71.5" y="-231.8" font-family="Times,serif" font-size="14.00">2</text>
</g>
<!-- 43 -->
<g id="node3" class="node">
<title>43</title>
<ellipse fill="none" stroke="black" cx="99" cy="-192" rx="27" ry="18"/>
<text text-anchor="middle" x="99" y="-188.3" font-family="Times,serif" font-size="14.00">43</text>
</g>
<!-- 0&#45;&gt;43 -->
<g id="edge2" class="edge">
<title>0&#45;&gt;43</title>
<path fill="none" stroke="black" d="M99,-260.8C99,-249.16 99,-233.55 99,-220.24"/>
<polygon fill="black" stroke="black" points="102.5,-220.18 99,-210.18 95.5,-220.18 102.5,-220.18"/>
<text text-anchor="middle" x="102.5" y="-231.8" font-family="Times,serif" font-size="14.00">5</text>
</g>
<!-- 60 -->
<g id="node4" class="node">
<title>60</title>
<ellipse fill="none" stroke="black" cx="171" cy="-192" rx="27" ry="18"/>
<text text-anchor="middle" x="171" y="-188.3" font-family="Times,serif" font-size="14.00">60</text>
</g>
<!-- 0&#45;&gt;60 -->
<g id="edge3" class="edge">
<title>0&#45;&gt;60</title>
<path fill="none" stroke="black" d="M111.87,-262.8C122.93,-249.75 139.04,-230.74 151.65,-215.85"/>
<polygon fill="black" stroke="black" points="154.45,-217.96 158.24,-208.06 149.11,-213.43 154.45,-217.96"/>
<text text-anchor="middle" x="142.5" y="-231.8" font-family="Times,serif" font-size="14.00">7</text>
</g>
<!-- 36 -->
<g id="node5" class="node">
<title>36</title>
<ellipse fill="none" stroke="black" cx="27" cy="-105" rx="27" ry="18"/>
<text text-anchor="middle" x="27" y="-101.3" font-family="Times,serif" font-size="14.00">36</text>
</g>
<!-- 17&#45;&gt;36 -->
<g id="edge4" class="edge">
<title>17&#45;&gt;36</title>
<path fill="none" stroke="black" d="M27,-173.8C27,-162.16 27,-146.55 27,-133.24"/>
<polygon fill="black" stroke="black" points="30.5,-133.18 27,-123.18 23.5,-133.18 30.5,-133.18"/>
<text text-anchor="middle" x="30.5" y="-144.8" font-family="Times,serif" font-size="14.00">4</text>
</g>
<!-- 30 -->
<g id="node6" class="node">
<title>30</title>
<ellipse fill="none" stroke="black" cx="99" cy="-105" rx="27" ry="18"/>
<text text-anchor="middle" x="99" y="-101.3" font-family="Times,serif" font-size="14.00">30</text>
</g>
<!-- 43&#45;&gt;30 -->
<g id="edge5" class="edge">
<title>43&#45;&gt;30</title>
<path fill="none" stroke="black" d="M99,-173.8C99,-162.16 99,-146.55 99,-133.24"/>
<polygon fill="black" stroke="black" points="102.5,-133.18 99,-123.18 95.5,-133.18 102.5,-133.18"/>
<text text-anchor="middle" x="102.5" y="-144.8" font-family="Times,serif" font-size="14.00">3</text>
</g>
<!-- 49 -->
<g id="node7" class="node">
<title>49</title>
<ellipse fill="none" stroke="black" cx="171" cy="-105" rx="27" ry="18"/>
<text text-anchor="middle" x="171" y="-101.3" font-family="Times,serif" font-size="14.00">49</text>
</g>
<!-- 60&#45;&gt;49 -->
<g id="edge6" class="edge">
<title>60&#45;&gt;49</title>
<path fill="none" stroke="black" d="M171,-173.8C171,-162.16 171,-146.55 171,-133.24"/>
<polygon fill="black" stroke="black" points="174.5,-133.18 171,-123.18 167.5,-133.18 174.5,-133.18"/>
<text text-anchor="middle" x="174.5" y="-144.8" font-family="Times,serif" font-size="14.00">5</text>
</g>
<!-- 12 -->
<g id="node8" class="node">
<title>12</title>
<ellipse fill="none" stroke="green" cx="27" cy="-18" rx="27" ry="18"/>
<text text-anchor="middle" x="27" y="-14.3" font-family="Times,serif" font-size="14.00">12</text>
</g>
<!-- 36&#45;&gt;12 -->
<g id="edge7" class="edge">
<title>36&#45;&gt;12</title>
<path fill="none" stroke="black" d="M27,-86.8C27,-75.16 27,-59.55 27,-46.24"/>
<polygon fill="black" stroke="black" points="30.5,-46.18 27,-36.18 23.5,-46.18 30.5,-46.18"/>
<text text-anchor="middle" x="30.5" y="-57.8" font-family="Times,serif" font-size="14.00">1</text>
</g>
<!-- 20 -->
<g id="node9" class="node">
<title>20</title>
<ellipse fill="none" stroke="green" cx="99" cy="-18" rx="27" ry="18"/>
<text text-anchor="middle" x="99" y="-14.3" font-family="Times,serif" font-size="14.00">20</text>
</g>
<!-- 30&#45;&gt;20 -->
<g id="edge8" class="edge">
<title>30&#45;&gt;20</title>
<path fill="none" stroke="black" d="M99,-86.8C99,-75.16 99,-59.55 99,-46.24"/>
<polygon fill="black" stroke="black" points="102.5,-46.18 99,-36.18 95.5,-46.18 102.5,-46.18"/>
<text text-anchor="middle" x="102.5" y="-57.8" font-family="Times,serif" font-size="14.00">2</text>
</g>
<!-- 22 -->
<g id="node10" class="node">
<title>22</title>
<ellipse fill="none" stroke="green" cx="171" cy="-18" rx="27" ry="18"/>
<text text-anchor="middle" x="171" y="-14.3" font-family="Times,serif" font-size="14.00">22</text>
</g>
<!-- 49&#45;&gt;22 -->
<g id="edge9" class="edge">
<title>49&#45;&gt;22</title>
<path fill="none" stroke="black" d="M171,-86.8C171,-75.16 171,-59.55 171,-46.24"/>
<polygon fill="black" stroke="black" points="174.5,-46.18 171,-36.18 167.5,-46.18 174.5,-46.18"/>
<text text-anchor="middle" x="174.5" y="-57.8" font-family="Times,serif" font-size="14.00">2</text>
</g>
</g>
</svg>
