<?xml version="1.0" encoding="UTF-8" standalone="no"?>
<!DOCTYPE svg PUBLIC "-//W3C//DTD SVG 1.1//EN"
 "http://www.w3.org/Graphics/SVG/1.1/DTD/svg11.dtd">
<!-- Generated by graphviz version 2.50.0 (0)
 -->
<!-- Pages: 1 -->
<svg width="134pt" height="218pt"
 viewBox="0.00 0.00 134.00 218.00" xmlns="http://www.w3.org/2000/svg" xmlns:xlink="http://www.w3.org/1999/xlink">
<g id="graph0" class="graph" transform="scale(1 1) rotate(0) translate(4 214)">
<polygon fill="white" stroke="transparent" points="-4,4 -4,-214 130,-214 130,4 -4,4"/>
<!-- 0 -->
<g id="node1" class="node">
<title>0</title>
<ellipse fill="none" stroke="green" cx="63" cy="-192" rx="27" ry="18"/>
<text text-anchor="middle" x="63" y="-188.3" font-family="Times,serif" font-size="14.00">0</text>
</g>
<!-- 35 -->
<g id="node2" class="node">
<title>35</title>
<ellipse fill="none" stroke="black" cx="27" cy="-105" rx="27" ry="18"/>
<text text-anchor="middle" x="27" y="-101.3" font-family="Times,serif" font-size="14.00">35</text>
</g>
<!-- 0&#45;&gt;35 -->
<g id="edge1" class="edge">
<title>0&#45;&gt;35</title>
<path fill="none" stroke="black" d="M55.89,-174.21C50.78,-162.14 43.79,-145.64 37.97,-131.89"/>
<polygon fill="black" stroke="black" points="41.1,-130.31 33.98,-122.47 34.65,-133.04 41.1,-130.31"/>
<text text-anchor="middle" x="51.5" y="-144.8" font-family="Times,serif" font-size="14.00">4</text>
</g>
<!-- 44 -->
<g id="node3" class="node">
<title>44</title>
<ellipse fill="none" stroke="black" cx="99" cy="-105" rx="27" ry="18"/>
<text text-anchor="middle" x="99" y="-101.3" font-family="Times,serif" font-size="14.00">44</text>
</g>
<!-- 0&#45;&gt;44 -->
<g id="edge2" class="edge">
<title>0&#45;&gt;44</title>
<path fill="none" stroke="black" d="M70.11,-174.21C75.22,-162.14 82.21,-145.64 88.03,-131.89"/>
<polygon fill="black" stroke="black" points="91.35,-133.04 92.02,-122.47 84.9,-130.31 91.35,-133.04"/>
<text text-anchor="middle" x="86.5" y="-144.8" font-family="Times,serif" font-size="14.00">5</text>
</g>
<!-- 21 -->
<g id="node4" class="node">
<title>21</title>
<ellipse fill="none" stroke="green" cx="27" cy="-18" rx="27" ry="18"/>
<text text-anchor="middle" x="27" y="-14.3" font-family="Times,serif" font-size="14.00">21</text>
</g>
<!-- 35&#45;&gt;21 -->
<g id="edge3" class="edge">
<title>35&#45;&gt;21</title>
<path fill="none" stroke="black" d="M27,-86.8C27,-75.16 27,-59.55 27,-46.24"/>
<polygon fill="black" stroke="black" points="30.5,-46.18 27,-36.18 23.5,-46.18 30.5,-46.18"/>
<text text-anchor="middle" x="30.5" y="-57.8" font-family="Times,serif" font-size="14.00">2</text>
</g>
<!-- 22 -->
<g id="node5" class="node">
<title>22</title>
<ellipse fill="none" stroke="green" cx="99" cy="-18" rx="27" ry="18"/>
<text text-anchor="middle" x="99" y="-14.3" font-family="Times,serif" font-size="14.00">22</text>
</g>
<!-- 44&#45;&gt;22 -->
<g id="edge4" class="edge">
<title>44&#45;&gt;22</title>
<path fill="none" stroke="black" d="M99,-86.8C99,-75.16 99,-59.55 99,-46.24"/>
<polygon fill="black" stroke="black" points="102.5,-46.18 99,-36.18 95.5,-46.18 102.5,-46.18"/>
<text text-anchor="middle" x="102.5" y="-57.8" font-family="Times,serif" font-size="14.00">2</text>
</g>
</g>
</svg>
