<?xml version="1.0" encoding="UTF-8" standalone="no"?>
<!DOCTYPE svg PUBLIC "-//W3C//DTD SVG 1.1//EN"
 "http://www.w3.org/Graphics/SVG/1.1/DTD/svg11.dtd">
<!-- Generated by graphviz version 2.50.0 (0)
 -->
<!-- Pages: 1 -->
<svg width="422pt" height="479pt"
 viewBox="0.00 0.00 422.00 479.00" xmlns="http://www.w3.org/2000/svg" xmlns:xlink="http://www.w3.org/1999/xlink">
<g id="graph0" class="graph" transform="scale(1 1) rotate(0) translate(4 475)">
<polygon fill="white" stroke="transparent" points="-4,4 -4,-475 418,-475 418,4 -4,4"/>
<!-- 0 -->
<g id="node1" class="node">
<title>0</title>
<ellipse fill="none" stroke="green" cx="197" cy="-453" rx="27" ry="18"/>
<text text-anchor="middle" x="197" y="-449.3" font-family="Times,serif" font-size="14.00">0</text>
</g>
<!-- 71 -->
<g id="node2" class="node">
<title>71</title>
<ellipse fill="none" stroke="black" cx="161" cy="-366" rx="27" ry="18"/>
<text text-anchor="middle" x="161" y="-362.3" font-family="Times,serif" font-size="14.00">71</text>
</g>
<!-- 0&#45;&gt;71 -->
<g id="edge1" class="edge">
<title>0&#45;&gt;71</title>
<path fill="none" stroke="black" d="M189.89,-435.21C184.78,-423.14 177.79,-406.64 171.97,-392.89"/>
<polygon fill="black" stroke="black" points="175.1,-391.31 167.98,-383.47 168.65,-394.04 175.1,-391.31"/>
<text text-anchor="middle" x="184.5" y="-405.8" font-family="Times,serif" font-size="14.00">8</text>
</g>
<!-- 80 -->
<g id="node3" class="node">
<title>80</title>
<ellipse fill="none" stroke="black" cx="242" cy="-366" rx="27" ry="18"/>
<text text-anchor="middle" x="242" y="-362.3" font-family="Times,serif" font-size="14.00">80</text>
</g>
<!-- 0&#45;&gt;80 -->
<g id="edge2" class="edge">
<title>0&#45;&gt;80</title>
<path fill="none" stroke="black" d="M205.68,-435.61C212.15,-423.38 221.12,-406.44 228.52,-392.46"/>
<polygon fill="black" stroke="black" points="231.76,-393.81 233.35,-383.34 225.58,-390.54 231.76,-393.81"/>
<text text-anchor="middle" x="225.5" y="-405.8" font-family="Times,serif" font-size="14.00">9</text>
</g>
<!-- 7 -->
<g id="node4" class="node">
<title>7</title>
<ellipse fill="none" stroke="black" cx="156" cy="-279" rx="27" ry="18"/>
<text text-anchor="middle" x="156" y="-275.3" font-family="Times,serif" font-size="14.00">7</text>
</g>
<!-- 71&#45;&gt;7 -->
<g id="edge3" class="edge">
<title>71&#45;&gt;7</title>
<path fill="none" stroke="black" d="M159.99,-347.8C159.3,-336.16 158.39,-320.55 157.6,-307.24"/>
<polygon fill="black" stroke="black" points="161.09,-306.95 157.01,-297.18 154.1,-307.36 161.09,-306.95"/>
<text text-anchor="middle" x="161.5" y="-318.8" font-family="Times,serif" font-size="14.00">0</text>
</g>
<!-- 16 -->
<g id="node5" class="node">
<title>16</title>
<ellipse fill="none" stroke="black" cx="69" cy="-279" rx="27" ry="18"/>
<text text-anchor="middle" x="69" y="-275.3" font-family="Times,serif" font-size="14.00">16</text>
</g>
<!-- 71&#45;&gt;16 -->
<g id="edge4" class="edge">
<title>71&#45;&gt;16</title>
<path fill="none" stroke="black" d="M145.81,-350.96C131.16,-337.43 108.8,-316.77 91.97,-301.22"/>
<polygon fill="black" stroke="black" points="93.93,-298.27 84.21,-294.06 89.18,-303.41 93.93,-298.27"/>
<text text-anchor="middle" x="123.5" y="-318.8" font-family="Times,serif" font-size="14.00">1</text>
</g>
<!-- 87 -->
<g id="node6" class="node">
<title>87</title>
<ellipse fill="none" stroke="black" cx="315" cy="-279" rx="27" ry="18"/>
<text text-anchor="middle" x="315" y="-275.3" font-family="Times,serif" font-size="14.00">87</text>
</g>
<!-- 71&#45;&gt;87 -->
<g id="edge5" class="edge">
<title>71&#45;&gt;87</title>
<path fill="none" stroke="black" d="M177.47,-351.4C191.18,-340.54 211.53,-325.46 231,-315 250.7,-304.41 257.38,-305.67 278,-297 280.06,-296.13 282.19,-295.22 284.32,-294.28"/>
<polygon fill="black" stroke="black" points="285.89,-297.41 293.58,-290.13 283.03,-291.02 285.89,-297.41"/>
<text text-anchor="middle" x="234.5" y="-318.8" font-family="Times,serif" font-size="14.00">9</text>
</g>
<!-- 8 -->
<g id="node7" class="node">
<title>8</title>
<ellipse fill="none" stroke="black" cx="242" cy="-279" rx="27" ry="18"/>
<text text-anchor="middle" x="242" y="-275.3" font-family="Times,serif" font-size="14.00">8</text>
</g>
<!-- 80&#45;&gt;8 -->
<g id="edge6" class="edge">
<title>80&#45;&gt;8</title>
<path fill="none" stroke="black" d="M242,-347.8C242,-336.16 242,-320.55 242,-307.24"/>
<polygon fill="black" stroke="black" points="245.5,-307.18 242,-297.18 238.5,-307.18 245.5,-307.18"/>
<text text-anchor="middle" x="245.5" y="-318.8" font-family="Times,serif" font-size="14.00">0</text>
</g>
<!-- 88 -->
<g id="node8" class="node">
<title>88</title>
<ellipse fill="none" stroke="black" cx="387" cy="-279" rx="27" ry="18"/>
<text text-anchor="middle" x="387" y="-275.3" font-family="Times,serif" font-size="14.00">88</text>
</g>
<!-- 80&#45;&gt;88 -->
<g id="edge7" class="edge">
<title>80&#45;&gt;88</title>
<path fill="none" stroke="black" d="M261.56,-353.54C286.53,-338.9 329.92,-313.46 358.56,-296.67"/>
<polygon fill="black" stroke="black" points="360.43,-299.63 367.29,-291.55 356.89,-293.59 360.43,-299.63"/>
<text text-anchor="middle" x="326.5" y="-318.8" font-family="Times,serif" font-size="14.00">9</text>
</g>
<!-- 54 -->
<g id="node9" class="node">
<title>54</title>
<ellipse fill="none" stroke="black" cx="171" cy="-192" rx="27" ry="18"/>
<text text-anchor="middle" x="171" y="-188.3" font-family="Times,serif" font-size="14.00">54</text>
</g>
<!-- 7&#45;&gt;54 -->
<g id="edge12" class="edge">
<title>7&#45;&gt;54</title>
<path fill="none" stroke="black" d="M155.36,-260.72C155.33,-251.01 155.85,-238.73 158,-228 158.59,-225.08 159.38,-222.08 160.29,-219.13"/>
<polygon fill="black" stroke="black" points="163.68,-220.02 163.68,-209.42 157.08,-217.7 163.68,-220.02"/>
<text text-anchor="middle" x="161.5" y="-231.8" font-family="Times,serif" font-size="14.00">6</text>
</g>
<!-- 63 -->
<g id="node10" class="node">
<title>63</title>
<ellipse fill="none" stroke="black" cx="243" cy="-192" rx="27" ry="18"/>
<text text-anchor="middle" x="243" y="-188.3" font-family="Times,serif" font-size="14.00">63</text>
</g>
<!-- 7&#45;&gt;63 -->
<g id="edge13" class="edge">
<title>7&#45;&gt;63</title>
<path fill="none" stroke="black" d="M171.21,-263.79C177.93,-257.47 185.9,-249.9 193,-243 202.39,-233.86 212.64,-223.66 221.41,-214.86"/>
<polygon fill="black" stroke="black" points="224.1,-217.11 228.66,-207.55 219.13,-212.18 224.1,-217.11"/>
<text text-anchor="middle" x="211.5" y="-231.8" font-family="Times,serif" font-size="14.00">7</text>
</g>
<!-- 45 -->
<g id="node12" class="node">
<title>45</title>
<ellipse fill="none" stroke="black" cx="99" cy="-192" rx="27" ry="18"/>
<text text-anchor="middle" x="99" y="-188.3" font-family="Times,serif" font-size="14.00">45</text>
</g>
<!-- 7&#45;&gt;45 -->
<g id="edge11" class="edge">
<title>7&#45;&gt;45</title>
<path fill="none" stroke="black" d="M145.28,-262.01C136.79,-249.35 124.79,-231.45 115.13,-217.06"/>
<polygon fill="black" stroke="black" points="117.96,-214.99 109.48,-208.63 112.14,-218.88 117.96,-214.99"/>
<text text-anchor="middle" x="133.5" y="-231.8" font-family="Times,serif" font-size="14.00">5</text>
</g>
<!-- 55 -->
<g id="node13" class="node">
<title>55</title>
<ellipse fill="none" stroke="black" cx="27" cy="-192" rx="27" ry="18"/>
<text text-anchor="middle" x="27" y="-188.3" font-family="Times,serif" font-size="14.00">55</text>
</g>
<!-- 16&#45;&gt;55 -->
<g id="edge14" class="edge">
<title>16&#45;&gt;55</title>
<path fill="none" stroke="black" d="M60.9,-261.61C54.86,-249.38 46.49,-232.44 39.58,-218.46"/>
<polygon fill="black" stroke="black" points="42.64,-216.75 35.07,-209.34 36.37,-219.85 42.64,-216.75"/>
<text text-anchor="middle" x="54.5" y="-231.8" font-family="Times,serif" font-size="14.00">6</text>
</g>
<!-- 62 -->
<g id="node11" class="node">
<title>62</title>
<ellipse fill="none" stroke="black" cx="387" cy="-192" rx="27" ry="18"/>
<text text-anchor="middle" x="387" y="-188.3" font-family="Times,serif" font-size="14.00">62</text>
</g>
<!-- 87&#45;&gt;62 -->
<g id="edge16" class="edge">
<title>87&#45;&gt;62</title>
<path fill="none" stroke="black" d="M327.87,-262.8C338.93,-249.75 355.04,-230.74 367.65,-215.85"/>
<polygon fill="black" stroke="black" points="370.45,-217.96 374.24,-208.06 365.11,-213.43 370.45,-217.96"/>
<text text-anchor="middle" x="358.5" y="-231.8" font-family="Times,serif" font-size="14.00">6</text>
</g>
<!-- 53 -->
<g id="node14" class="node">
<title>53</title>
<ellipse fill="none" stroke="black" cx="315" cy="-192" rx="27" ry="18"/>
<text text-anchor="middle" x="315" y="-188.3" font-family="Times,serif" font-size="14.00">53</text>
</g>
<!-- 87&#45;&gt;53 -->
<g id="edge15" class="edge">
<title>87&#45;&gt;53</title>
<path fill="none" stroke="black" d="M315,-260.8C315,-249.16 315,-233.55 315,-220.24"/>
<polygon fill="black" stroke="black" points="318.5,-220.18 315,-210.18 311.5,-220.18 318.5,-220.18"/>
<text text-anchor="middle" x="318.5" y="-231.8" font-family="Times,serif" font-size="14.00">5</text>
</g>
<!-- 8&#45;&gt;54 -->
<g id="edge8" class="edge">
<title>8&#45;&gt;54</title>
<path fill="none" stroke="black" d="M220.26,-268.25C209.24,-262.34 196.44,-253.84 188,-243 182.77,-236.29 179.1,-227.87 176.54,-219.87"/>
<polygon fill="black" stroke="black" points="179.89,-218.83 173.87,-210.11 173.14,-220.68 179.89,-218.83"/>
<text text-anchor="middle" x="191.5" y="-231.8" font-family="Times,serif" font-size="14.00">6</text>
</g>
<!-- 8&#45;&gt;63 -->
<g id="edge9" class="edge">
<title>8&#45;&gt;63</title>
<path fill="none" stroke="black" d="M242.2,-260.8C242.34,-249.16 242.52,-233.55 242.68,-220.24"/>
<polygon fill="black" stroke="black" points="246.18,-220.22 242.8,-210.18 239.18,-220.13 246.18,-220.22"/>
<text text-anchor="middle" x="245.5" y="-231.8" font-family="Times,serif" font-size="14.00">7</text>
</g>
<!-- 88&#45;&gt;62 -->
<g id="edge10" class="edge">
<title>88&#45;&gt;62</title>
<path fill="none" stroke="black" d="M387,-260.8C387,-249.16 387,-233.55 387,-220.24"/>
<polygon fill="black" stroke="black" points="390.5,-220.18 387,-210.18 383.5,-220.18 390.5,-220.18"/>
<text text-anchor="middle" x="390.5" y="-231.8" font-family="Times,serif" font-size="14.00">6</text>
</g>
<!-- 23 -->
<g id="node16" class="node">
<title>23</title>
<ellipse fill="none" stroke="black" cx="315" cy="-105" rx="27" ry="18"/>
<text text-anchor="middle" x="315" y="-101.3" font-family="Times,serif" font-size="14.00">23</text>
</g>
<!-- 54&#45;&gt;23 -->
<g id="edge18" class="edge">
<title>54&#45;&gt;23</title>
<path fill="none" stroke="black" d="M189.97,-179.15C209.99,-166.67 240.24,-147.89 252,-141 262.94,-134.59 275.09,-127.77 285.77,-121.87"/>
<polygon fill="black" stroke="black" points="287.64,-124.84 294.72,-116.96 284.27,-118.7 287.64,-124.84"/>
<text text-anchor="middle" x="255.5" y="-144.8" font-family="Times,serif" font-size="14.00">2</text>
</g>
<!-- 32 -->
<g id="node17" class="node">
<title>32</title>
<ellipse fill="none" stroke="black" cx="171" cy="-105" rx="27" ry="18"/>
<text text-anchor="middle" x="171" y="-101.3" font-family="Times,serif" font-size="14.00">32</text>
</g>
<!-- 54&#45;&gt;32 -->
<g id="edge19" class="edge">
<title>54&#45;&gt;32</title>
<path fill="none" stroke="black" d="M171,-173.8C171,-162.16 171,-146.55 171,-133.24"/>
<polygon fill="black" stroke="black" points="174.5,-133.18 171,-123.18 167.5,-133.18 174.5,-133.18"/>
<text text-anchor="middle" x="174.5" y="-144.8" font-family="Times,serif" font-size="14.00">3</text>
</g>
<!-- 24 -->
<g id="node18" class="node">
<title>24</title>
<ellipse fill="none" stroke="black" cx="387" cy="-105" rx="27" ry="18"/>
<text text-anchor="middle" x="387" y="-101.3" font-family="Times,serif" font-size="14.00">24</text>
</g>
<!-- 63&#45;&gt;24 -->
<g id="edge20" class="edge">
<title>63&#45;&gt;24</title>
<path fill="none" stroke="black" d="M259.67,-177.5C273.27,-166.84 293.23,-151.99 312,-141 328.47,-131.35 333.7,-131.08 351,-123 352.78,-122.17 354.62,-121.31 356.47,-120.44"/>
<polygon fill="black" stroke="black" points="358.14,-123.52 365.69,-116.1 355.16,-117.19 358.14,-123.52"/>
<text text-anchor="middle" x="315.5" y="-144.8" font-family="Times,serif" font-size="14.00">2</text>
</g>
<!-- 33 -->
<g id="node19" class="node">
<title>33</title>
<ellipse fill="none" stroke="black" cx="243" cy="-105" rx="27" ry="18"/>
<text text-anchor="middle" x="243" y="-101.3" font-family="Times,serif" font-size="14.00">33</text>
</g>
<!-- 63&#45;&gt;33 -->
<g id="edge21" class="edge">
<title>63&#45;&gt;33</title>
<path fill="none" stroke="black" d="M230.66,-175.6C224.37,-165.9 218.68,-152.98 222,-141 223,-137.37 224.5,-133.74 226.23,-130.27"/>
<polygon fill="black" stroke="black" points="229.29,-131.96 231.22,-121.54 223.22,-128.49 229.29,-131.96"/>
<text text-anchor="middle" x="225.5" y="-144.8" font-family="Times,serif" font-size="14.00">3</text>
</g>
<!-- 62&#45;&gt;24 -->
<g id="edge25" class="edge">
<title>62&#45;&gt;24</title>
<path fill="none" stroke="black" d="M387,-173.8C387,-162.16 387,-146.55 387,-133.24"/>
<polygon fill="black" stroke="black" points="390.5,-133.18 387,-123.18 383.5,-133.18 390.5,-133.18"/>
<text text-anchor="middle" x="390.5" y="-144.8" font-family="Times,serif" font-size="14.00">2</text>
</g>
<!-- 31 -->
<g id="node15" class="node">
<title>31</title>
<ellipse fill="none" stroke="black" cx="99" cy="-105" rx="27" ry="18"/>
<text text-anchor="middle" x="99" y="-101.3" font-family="Times,serif" font-size="14.00">31</text>
</g>
<!-- 45&#45;&gt;31 -->
<g id="edge17" class="edge">
<title>45&#45;&gt;31</title>
<path fill="none" stroke="black" d="M99,-173.8C99,-162.16 99,-146.55 99,-133.24"/>
<polygon fill="black" stroke="black" points="102.5,-133.18 99,-123.18 95.5,-133.18 102.5,-133.18"/>
<text text-anchor="middle" x="102.5" y="-144.8" font-family="Times,serif" font-size="14.00">3</text>
</g>
<!-- 55&#45;&gt;32 -->
<g id="edge22" class="edge">
<title>55&#45;&gt;32</title>
<path fill="none" stroke="black" d="M41.53,-176.8C53.3,-165.89 70.71,-151.04 88,-141 107.34,-129.77 114.43,-131.78 135,-123 136.81,-122.23 138.67,-121.41 140.53,-120.58"/>
<polygon fill="black" stroke="black" points="142.17,-123.68 149.8,-116.34 139.25,-117.32 142.17,-123.68"/>
<text text-anchor="middle" x="91.5" y="-144.8" font-family="Times,serif" font-size="14.00">3</text>
</g>
<!-- 53&#45;&gt;23 -->
<g id="edge23" class="edge">
<title>53&#45;&gt;23</title>
<path fill="none" stroke="black" d="M316.27,-173.88C316.83,-164.23 317.31,-151.94 317,-141 316.93,-138.44 316.82,-135.79 316.7,-133.13"/>
<polygon fill="black" stroke="black" points="320.2,-132.88 316.17,-123.08 313.21,-133.25 320.2,-132.88"/>
<text text-anchor="middle" x="320.5" y="-144.8" font-family="Times,serif" font-size="14.00">2</text>
</g>
<!-- 53&#45;&gt;32 -->
<g id="edge24" class="edge">
<title>53&#45;&gt;32</title>
<path fill="none" stroke="black" d="M300.9,-176.21C289.82,-165.27 273.53,-150.65 257,-141 236.6,-129.09 228.81,-132.05 207,-123 205.18,-122.24 203.32,-121.45 201.45,-120.63"/>
<polygon fill="black" stroke="black" points="202.72,-117.36 192.17,-116.41 199.83,-123.73 202.72,-117.36"/>
<text text-anchor="middle" x="280.5" y="-144.8" font-family="Times,serif" font-size="14.00">3</text>
</g>
<!-- 12 -->
<g id="node20" class="node">
<title>12</title>
<ellipse fill="none" stroke="green" cx="171" cy="-18" rx="27" ry="18"/>
<text text-anchor="middle" x="171" y="-14.3" font-family="Times,serif" font-size="14.00">12</text>
</g>
<!-- 31&#45;&gt;12 -->
<g id="edge26" class="edge">
<title>31&#45;&gt;12</title>
<path fill="none" stroke="black" d="M111.87,-88.8C122.93,-75.75 139.04,-56.74 151.65,-41.85"/>
<polygon fill="black" stroke="black" points="154.45,-43.96 158.24,-34.06 149.11,-39.43 154.45,-43.96"/>
<text text-anchor="middle" x="142.5" y="-57.8" font-family="Times,serif" font-size="14.00">1</text>
</g>
<!-- 11 -->
<g id="node21" class="node">
<title>11</title>
<ellipse fill="none" stroke="green" cx="315" cy="-18" rx="27" ry="18"/>
<text text-anchor="middle" x="315" y="-14.3" font-family="Times,serif" font-size="14.00">11</text>
</g>
<!-- 23&#45;&gt;11 -->
<g id="edge27" class="edge">
<title>23&#45;&gt;11</title>
<path fill="none" stroke="black" d="M315,-86.8C315,-75.16 315,-59.55 315,-46.24"/>
<polygon fill="black" stroke="black" points="318.5,-46.18 315,-36.18 311.5,-46.18 318.5,-46.18"/>
<text text-anchor="middle" x="318.5" y="-57.8" font-family="Times,serif" font-size="14.00">1</text>
</g>
<!-- 32&#45;&gt;12 -->
<g id="edge28" class="edge">
<title>32&#45;&gt;12</title>
<path fill="none" stroke="black" d="M171,-86.8C171,-75.16 171,-59.55 171,-46.24"/>
<polygon fill="black" stroke="black" points="174.5,-46.18 171,-36.18 167.5,-46.18 174.5,-46.18"/>
<text text-anchor="middle" x="174.5" y="-57.8" font-family="Times,serif" font-size="14.00">1</text>
</g>
<!-- 20 -->
<g id="node22" class="node">
<title>20</title>
<ellipse fill="none" stroke="green" cx="387" cy="-18" rx="27" ry="18"/>
<text text-anchor="middle" x="387" y="-14.3" font-family="Times,serif" font-size="14.00">20</text>
</g>
<!-- 24&#45;&gt;20 -->
<g id="edge29" class="edge">
<title>24&#45;&gt;20</title>
<path fill="none" stroke="black" d="M387,-86.8C387,-75.16 387,-59.55 387,-46.24"/>
<polygon fill="black" stroke="black" points="390.5,-46.18 387,-36.18 383.5,-46.18 390.5,-46.18"/>
<text text-anchor="middle" x="390.5" y="-57.8" font-family="Times,serif" font-size="14.00">2</text>
</g>
<!-- 33&#45;&gt;12 -->
<g id="edge30" class="edge">
<title>33&#45;&gt;12</title>
<path fill="none" stroke="black" d="M230.13,-88.8C219.07,-75.75 202.96,-56.74 190.35,-41.85"/>
<polygon fill="black" stroke="black" points="192.89,-39.43 183.76,-34.06 187.55,-43.96 192.89,-39.43"/>
<text text-anchor="middle" x="214.5" y="-57.8" font-family="Times,serif" font-size="14.00">1</text>
</g>
</g>
</svg>
