<?xml version="1.0" encoding="UTF-8" standalone="no"?>
<!DOCTYPE svg PUBLIC "-//W3C//DTD SVG 1.1//EN"
 "http://www.w3.org/Graphics/SVG/1.1/DTD/svg11.dtd">
<!-- Generated by graphviz version 2.50.0 (0)
 -->
<!-- Pages: 1 -->
<svg width="134pt" height="305pt"
 viewBox="0.00 0.00 134.00 305.00" xmlns="http://www.w3.org/2000/svg" xmlns:xlink="http://www.w3.org/1999/xlink">
<g id="graph0" class="graph" transform="scale(1 1) rotate(0) translate(4 301)">
<polygon fill="white" stroke="transparent" points="-4,4 -4,-301 130,-301 130,4 -4,4"/>
<!-- 0 -->
<g id="node1" class="node">
<title>0</title>
<ellipse fill="none" stroke="green" cx="62" cy="-279" rx="27" ry="18"/>
<text text-anchor="middle" x="62" y="-275.3" font-family="Times,serif" font-size="14.00">0</text>
</g>
<!-- 57 -->
<g id="node2" class="node">
<title>57</title>
<ellipse fill="none" stroke="black" cx="27" cy="-192" rx="27" ry="18"/>
<text text-anchor="middle" x="27" y="-188.3" font-family="Times,serif" font-size="14.00">57</text>
</g>
<!-- 0&#45;&gt;57 -->
<g id="edge1" class="edge">
<title>0&#45;&gt;57</title>
<path fill="none" stroke="black" d="M55.09,-261.21C50.12,-249.14 43.32,-232.64 37.66,-218.89"/>
<polygon fill="black" stroke="black" points="40.83,-217.38 33.78,-209.47 34.35,-220.05 40.83,-217.38"/>
<text text-anchor="middle" x="50.5" y="-231.8" font-family="Times,serif" font-size="14.00">6</text>
</g>
<!-- 76 -->
<g id="node3" class="node">
<title>76</title>
<ellipse fill="none" stroke="black" cx="99" cy="-192" rx="27" ry="18"/>
<text text-anchor="middle" x="99" y="-188.3" font-family="Times,serif" font-size="14.00">76</text>
</g>
<!-- 0&#45;&gt;76 -->
<g id="edge2" class="edge">
<title>0&#45;&gt;76</title>
<path fill="none" stroke="black" d="M69.13,-261.61C74.37,-249.58 81.6,-232.98 87.63,-219.13"/>
<polygon fill="black" stroke="black" points="90.98,-220.19 91.76,-209.63 84.56,-217.4 90.98,-220.19"/>
<text text-anchor="middle" x="85.5" y="-231.8" font-family="Times,serif" font-size="14.00">8</text>
</g>
<!-- 15 -->
<g id="node4" class="node">
<title>15</title>
<ellipse fill="none" stroke="black" cx="27" cy="-105" rx="27" ry="18"/>
<text text-anchor="middle" x="27" y="-101.3" font-family="Times,serif" font-size="14.00">15</text>
</g>
<!-- 57&#45;&gt;15 -->
<g id="edge3" class="edge">
<title>57&#45;&gt;15</title>
<path fill="none" stroke="black" d="M27,-173.8C27,-162.16 27,-146.55 27,-133.24"/>
<polygon fill="black" stroke="black" points="30.5,-133.18 27,-123.18 23.5,-133.18 30.5,-133.18"/>
<text text-anchor="middle" x="30.5" y="-144.8" font-family="Times,serif" font-size="14.00">1</text>
</g>
<!-- 17 -->
<g id="node5" class="node">
<title>17</title>
<ellipse fill="none" stroke="black" cx="99" cy="-105" rx="27" ry="18"/>
<text text-anchor="middle" x="99" y="-101.3" font-family="Times,serif" font-size="14.00">17</text>
</g>
<!-- 76&#45;&gt;17 -->
<g id="edge4" class="edge">
<title>76&#45;&gt;17</title>
<path fill="none" stroke="black" d="M99,-173.8C99,-162.16 99,-146.55 99,-133.24"/>
<polygon fill="black" stroke="black" points="102.5,-133.18 99,-123.18 95.5,-133.18 102.5,-133.18"/>
<text text-anchor="middle" x="102.5" y="-144.8" font-family="Times,serif" font-size="14.00">1</text>
</g>
<!-- 11 -->
<g id="node6" class="node">
<title>11</title>
<ellipse fill="none" stroke="green" cx="63" cy="-18" rx="27" ry="18"/>
<text text-anchor="middle" x="63" y="-14.3" font-family="Times,serif" font-size="14.00">11</text>
</g>
<!-- 15&#45;&gt;11 -->
<g id="edge5" class="edge">
<title>15&#45;&gt;11</title>
<path fill="none" stroke="black" d="M34.11,-87.21C39.22,-75.14 46.21,-58.64 52.03,-44.89"/>
<polygon fill="black" stroke="black" points="55.35,-46.04 56.02,-35.47 48.9,-43.31 55.35,-46.04"/>
<text text-anchor="middle" x="51.5" y="-57.8" font-family="Times,serif" font-size="14.00">1</text>
</g>
<!-- 17&#45;&gt;11 -->
<g id="edge6" class="edge">
<title>17&#45;&gt;11</title>
<path fill="none" stroke="black" d="M91.89,-87.21C86.78,-75.14 79.79,-58.64 73.97,-44.89"/>
<polygon fill="black" stroke="black" points="77.1,-43.31 69.98,-35.47 70.65,-46.04 77.1,-43.31"/>
<text text-anchor="middle" x="86.5" y="-57.8" font-family="Times,serif" font-size="14.00">1</text>
</g>
</g>
</svg>
