<?xml version="1.0" encoding="UTF-8" standalone="no"?>
<!DOCTYPE svg PUBLIC "-//W3C//DTD SVG 1.1//EN"
 "http://www.w3.org/Graphics/SVG/1.1/DTD/svg11.dtd">
<!-- Generated by graphviz version 2.50.0 (0)
 -->
<!-- Pages: 1 -->
<svg width="134pt" height="392pt"
 viewBox="0.00 0.00 134.00 392.00" xmlns="http://www.w3.org/2000/svg" xmlns:xlink="http://www.w3.org/1999/xlink">
<g id="graph0" class="graph" transform="scale(1 1) rotate(0) translate(4 388)">
<polygon fill="white" stroke="transparent" points="-4,4 -4,-388 130,-388 130,4 -4,4"/>
<!-- 0 -->
<g id="node1" class="node">
<title>0</title>
<ellipse fill="none" stroke="green" cx="62" cy="-366" rx="27" ry="18"/>
<text text-anchor="middle" x="62" y="-362.3" font-family="Times,serif" font-size="14.00">0</text>
</g>
<!-- 39 -->
<g id="node2" class="node">
<title>39</title>
<ellipse fill="none" stroke="black" cx="27" cy="-279" rx="27" ry="18"/>
<text text-anchor="middle" x="27" y="-275.3" font-family="Times,serif" font-size="14.00">39</text>
</g>
<!-- 0&#45;&gt;39 -->
<g id="edge1" class="edge">
<title>0&#45;&gt;39</title>
<path fill="none" stroke="black" d="M55.09,-348.21C50.12,-336.14 43.32,-319.64 37.66,-305.89"/>
<polygon fill="black" stroke="black" points="40.83,-304.38 33.78,-296.47 34.35,-307.05 40.83,-304.38"/>
<text text-anchor="middle" x="50.5" y="-318.8" font-family="Times,serif" font-size="14.00">4</text>
</g>
<!-- 49 -->
<g id="node3" class="node">
<title>49</title>
<ellipse fill="none" stroke="black" cx="99" cy="-279" rx="27" ry="18"/>
<text text-anchor="middle" x="99" y="-275.3" font-family="Times,serif" font-size="14.00">49</text>
</g>
<!-- 0&#45;&gt;49 -->
<g id="edge2" class="edge">
<title>0&#45;&gt;49</title>
<path fill="none" stroke="black" d="M69.13,-348.61C74.37,-336.58 81.6,-319.98 87.63,-306.13"/>
<polygon fill="black" stroke="black" points="90.98,-307.19 91.76,-296.63 84.56,-304.4 90.98,-307.19"/>
<text text-anchor="middle" x="85.5" y="-318.8" font-family="Times,serif" font-size="14.00">5</text>
</g>
<!-- 43 -->
<g id="node4" class="node">
<title>43</title>
<ellipse fill="none" stroke="black" cx="27" cy="-192" rx="27" ry="18"/>
<text text-anchor="middle" x="27" y="-188.3" font-family="Times,serif" font-size="14.00">43</text>
</g>
<!-- 39&#45;&gt;43 -->
<g id="edge3" class="edge">
<title>39&#45;&gt;43</title>
<path fill="none" stroke="black" d="M27,-260.8C27,-249.16 27,-233.55 27,-220.24"/>
<polygon fill="black" stroke="black" points="30.5,-220.18 27,-210.18 23.5,-220.18 30.5,-220.18"/>
<text text-anchor="middle" x="30.5" y="-231.8" font-family="Times,serif" font-size="14.00">4</text>
</g>
<!-- 44 -->
<g id="node5" class="node">
<title>44</title>
<ellipse fill="none" stroke="black" cx="99" cy="-192" rx="27" ry="18"/>
<text text-anchor="middle" x="99" y="-188.3" font-family="Times,serif" font-size="14.00">44</text>
</g>
<!-- 49&#45;&gt;44 -->
<g id="edge4" class="edge">
<title>49&#45;&gt;44</title>
<path fill="none" stroke="black" d="M99,-260.8C99,-249.16 99,-233.55 99,-220.24"/>
<polygon fill="black" stroke="black" points="102.5,-220.18 99,-210.18 95.5,-220.18 102.5,-220.18"/>
<text text-anchor="middle" x="102.5" y="-231.8" font-family="Times,serif" font-size="14.00">4</text>
</g>
<!-- 14 -->
<g id="node6" class="node">
<title>14</title>
<ellipse fill="none" stroke="black" cx="27" cy="-105" rx="27" ry="18"/>
<text text-anchor="middle" x="27" y="-101.3" font-family="Times,serif" font-size="14.00">14</text>
</g>
<!-- 43&#45;&gt;14 -->
<g id="edge7" class="edge">
<title>43&#45;&gt;14</title>
<path fill="none" stroke="black" d="M27,-173.8C27,-162.16 27,-146.55 27,-133.24"/>
<polygon fill="black" stroke="black" points="30.5,-133.18 27,-123.18 23.5,-133.18 30.5,-133.18"/>
<text text-anchor="middle" x="30.5" y="-144.8" font-family="Times,serif" font-size="14.00">1</text>
</g>
<!-- 44&#45;&gt;14 -->
<g id="edge5" class="edge">
<title>44&#45;&gt;14</title>
<path fill="none" stroke="black" d="M86.13,-175.8C75.07,-162.75 58.96,-143.74 46.35,-128.85"/>
<polygon fill="black" stroke="black" points="48.89,-126.43 39.76,-121.06 43.55,-130.96 48.89,-126.43"/>
<text text-anchor="middle" x="70.5" y="-144.8" font-family="Times,serif" font-size="14.00">1</text>
</g>
<!-- 24 -->
<g id="node7" class="node">
<title>24</title>
<ellipse fill="none" stroke="black" cx="99" cy="-105" rx="27" ry="18"/>
<text text-anchor="middle" x="99" y="-101.3" font-family="Times,serif" font-size="14.00">24</text>
</g>
<!-- 44&#45;&gt;24 -->
<g id="edge6" class="edge">
<title>44&#45;&gt;24</title>
<path fill="none" stroke="black" d="M99,-173.8C99,-162.16 99,-146.55 99,-133.24"/>
<polygon fill="black" stroke="black" points="102.5,-133.18 99,-123.18 95.5,-133.18 102.5,-133.18"/>
<text text-anchor="middle" x="102.5" y="-144.8" font-family="Times,serif" font-size="14.00">2</text>
</g>
<!-- 11 -->
<g id="node8" class="node">
<title>11</title>
<ellipse fill="none" stroke="green" cx="27" cy="-18" rx="27" ry="18"/>
<text text-anchor="middle" x="27" y="-14.3" font-family="Times,serif" font-size="14.00">11</text>
</g>
<!-- 14&#45;&gt;11 -->
<g id="edge8" class="edge">
<title>14&#45;&gt;11</title>
<path fill="none" stroke="black" d="M27,-86.8C27,-75.16 27,-59.55 27,-46.24"/>
<polygon fill="black" stroke="black" points="30.5,-46.18 27,-36.18 23.5,-46.18 30.5,-46.18"/>
<text text-anchor="middle" x="30.5" y="-57.8" font-family="Times,serif" font-size="14.00">1</text>
</g>
<!-- 12 -->
<g id="node9" class="node">
<title>12</title>
<ellipse fill="none" stroke="green" cx="99" cy="-18" rx="27" ry="18"/>
<text text-anchor="middle" x="99" y="-14.3" font-family="Times,serif" font-size="14.00">12</text>
</g>
<!-- 24&#45;&gt;12 -->
<g id="edge9" class="edge">
<title>24&#45;&gt;12</title>
<path fill="none" stroke="black" d="M99,-86.8C99,-75.16 99,-59.55 99,-46.24"/>
<polygon fill="black" stroke="black" points="102.5,-46.18 99,-36.18 95.5,-46.18 102.5,-46.18"/>
<text text-anchor="middle" x="102.5" y="-57.8" font-family="Times,serif" font-size="14.00">1</text>
</g>
</g>
</svg>
