<?xml version="1.0" encoding="UTF-8" standalone="no"?>
<!DOCTYPE svg PUBLIC "-//W3C//DTD SVG 1.1//EN"
 "http://www.w3.org/Graphics/SVG/1.1/DTD/svg11.dtd">
<!-- Generated by graphviz version 2.50.0 (0)
 -->
<!-- Pages: 1 -->
<svg width="278pt" height="740pt"
 viewBox="0.00 0.00 278.00 740.00" xmlns="http://www.w3.org/2000/svg" xmlns:xlink="http://www.w3.org/1999/xlink">
<g id="graph0" class="graph" transform="scale(1 1) rotate(0) translate(4 736)">
<polygon fill="white" stroke="transparent" points="-4,4 -4,-736 274,-736 274,4 -4,4"/>
<!-- 0 -->
<g id="node1" class="node">
<title>0</title>
<ellipse fill="none" stroke="green" cx="135" cy="-714" rx="27" ry="18"/>
<text text-anchor="middle" x="135" y="-710.3" font-family="Times,serif" font-size="14.00">0</text>
</g>
<!-- 79 -->
<g id="node2" class="node">
<title>79</title>
<ellipse fill="none" stroke="black" cx="99" cy="-627" rx="27" ry="18"/>
<text text-anchor="middle" x="99" y="-623.3" font-family="Times,serif" font-size="14.00">79</text>
</g>
<!-- 0&#45;&gt;79 -->
<g id="edge1" class="edge">
<title>0&#45;&gt;79</title>
<path fill="none" stroke="black" d="M127.89,-696.21C122.78,-684.14 115.79,-667.64 109.97,-653.89"/>
<polygon fill="black" stroke="black" points="113.1,-652.31 105.98,-644.47 106.65,-655.04 113.1,-652.31"/>
<text text-anchor="middle" x="122.5" y="-666.8" font-family="Times,serif" font-size="14.00">8</text>
</g>
<!-- 89 -->
<g id="node3" class="node">
<title>89</title>
<ellipse fill="none" stroke="black" cx="171" cy="-627" rx="27" ry="18"/>
<text text-anchor="middle" x="171" y="-623.3" font-family="Times,serif" font-size="14.00">89</text>
</g>
<!-- 0&#45;&gt;89 -->
<g id="edge2" class="edge">
<title>0&#45;&gt;89</title>
<path fill="none" stroke="black" d="M142.11,-696.21C147.22,-684.14 154.21,-667.64 160.03,-653.89"/>
<polygon fill="black" stroke="black" points="163.35,-655.04 164.02,-644.47 156.9,-652.31 163.35,-655.04"/>
<text text-anchor="middle" x="158.5" y="-666.8" font-family="Times,serif" font-size="14.00">9</text>
</g>
<!-- 77 -->
<g id="node4" class="node">
<title>77</title>
<ellipse fill="none" stroke="black" cx="27" cy="-540" rx="27" ry="18"/>
<text text-anchor="middle" x="27" y="-536.3" font-family="Times,serif" font-size="14.00">77</text>
</g>
<!-- 79&#45;&gt;77 -->
<g id="edge3" class="edge">
<title>79&#45;&gt;77</title>
<path fill="none" stroke="black" d="M86.13,-610.8C75.07,-597.75 58.96,-578.74 46.35,-563.85"/>
<polygon fill="black" stroke="black" points="48.89,-561.43 39.76,-556.06 43.55,-565.96 48.89,-561.43"/>
<text text-anchor="middle" x="70.5" y="-579.8" font-family="Times,serif" font-size="14.00">7</text>
</g>
<!-- 87 -->
<g id="node5" class="node">
<title>87</title>
<ellipse fill="none" stroke="black" cx="99" cy="-540" rx="27" ry="18"/>
<text text-anchor="middle" x="99" y="-536.3" font-family="Times,serif" font-size="14.00">87</text>
</g>
<!-- 79&#45;&gt;87 -->
<g id="edge4" class="edge">
<title>79&#45;&gt;87</title>
<path fill="none" stroke="black" d="M99,-608.8C99,-597.16 99,-581.55 99,-568.24"/>
<polygon fill="black" stroke="black" points="102.5,-568.18 99,-558.18 95.5,-568.18 102.5,-568.18"/>
<text text-anchor="middle" x="102.5" y="-579.8" font-family="Times,serif" font-size="14.00">8</text>
</g>
<!-- 78 -->
<g id="node6" class="node">
<title>78</title>
<ellipse fill="none" stroke="black" cx="171" cy="-540" rx="27" ry="18"/>
<text text-anchor="middle" x="171" y="-536.3" font-family="Times,serif" font-size="14.00">78</text>
</g>
<!-- 89&#45;&gt;78 -->
<g id="edge5" class="edge">
<title>89&#45;&gt;78</title>
<path fill="none" stroke="black" d="M171,-608.8C171,-597.16 171,-581.55 171,-568.24"/>
<polygon fill="black" stroke="black" points="174.5,-568.18 171,-558.18 167.5,-568.18 174.5,-568.18"/>
<text text-anchor="middle" x="174.5" y="-579.8" font-family="Times,serif" font-size="14.00">7</text>
</g>
<!-- 88 -->
<g id="node7" class="node">
<title>88</title>
<ellipse fill="none" stroke="black" cx="243" cy="-540" rx="27" ry="18"/>
<text text-anchor="middle" x="243" y="-536.3" font-family="Times,serif" font-size="14.00">88</text>
</g>
<!-- 89&#45;&gt;88 -->
<g id="edge6" class="edge">
<title>89&#45;&gt;88</title>
<path fill="none" stroke="black" d="M183.87,-610.8C194.93,-597.75 211.04,-578.74 223.65,-563.85"/>
<polygon fill="black" stroke="black" points="226.45,-565.96 230.24,-556.06 221.11,-561.43 226.45,-565.96"/>
<text text-anchor="middle" x="214.5" y="-579.8" font-family="Times,serif" font-size="14.00">8</text>
</g>
<!-- 67 -->
<g id="node8" class="node">
<title>67</title>
<ellipse fill="none" stroke="black" cx="171" cy="-453" rx="27" ry="18"/>
<text text-anchor="middle" x="171" y="-449.3" font-family="Times,serif" font-size="14.00">67</text>
</g>
<!-- 77&#45;&gt;67 -->
<g id="edge10" class="edge">
<title>77&#45;&gt;67</title>
<path fill="none" stroke="black" d="M41.53,-524.8C53.3,-513.89 70.71,-499.04 88,-489 107.34,-477.77 114.43,-479.78 135,-471 136.81,-470.23 138.67,-469.41 140.53,-468.58"/>
<polygon fill="black" stroke="black" points="142.17,-471.68 149.8,-464.34 139.25,-465.32 142.17,-471.68"/>
<text text-anchor="middle" x="91.5" y="-492.8" font-family="Times,serif" font-size="14.00">6</text>
</g>
<!-- 57 -->
<g id="node10" class="node">
<title>57</title>
<ellipse fill="none" stroke="black" cx="27" cy="-453" rx="27" ry="18"/>
<text text-anchor="middle" x="27" y="-449.3" font-family="Times,serif" font-size="14.00">57</text>
</g>
<!-- 77&#45;&gt;57 -->
<g id="edge9" class="edge">
<title>77&#45;&gt;57</title>
<path fill="none" stroke="black" d="M27,-521.8C27,-510.16 27,-494.55 27,-481.24"/>
<polygon fill="black" stroke="black" points="30.5,-481.18 27,-471.18 23.5,-481.18 30.5,-481.18"/>
<text text-anchor="middle" x="30.5" y="-492.8" font-family="Times,serif" font-size="14.00">5</text>
</g>
<!-- 68 -->
<g id="node9" class="node">
<title>68</title>
<ellipse fill="none" stroke="black" cx="243" cy="-453" rx="27" ry="18"/>
<text text-anchor="middle" x="243" y="-449.3" font-family="Times,serif" font-size="14.00">68</text>
</g>
<!-- 87&#45;&gt;68 -->
<g id="edge12" class="edge">
<title>87&#45;&gt;68</title>
<path fill="none" stroke="black" d="M113.53,-524.8C125.3,-513.89 142.71,-499.04 160,-489 179.34,-477.77 186.43,-479.78 207,-471 208.81,-470.23 210.67,-469.41 212.53,-468.58"/>
<polygon fill="black" stroke="black" points="214.17,-471.68 221.8,-464.34 211.25,-465.32 214.17,-471.68"/>
<text text-anchor="middle" x="163.5" y="-492.8" font-family="Times,serif" font-size="14.00">6</text>
</g>
<!-- 58 -->
<g id="node11" class="node">
<title>58</title>
<ellipse fill="none" stroke="black" cx="99" cy="-453" rx="27" ry="18"/>
<text text-anchor="middle" x="99" y="-449.3" font-family="Times,serif" font-size="14.00">58</text>
</g>
<!-- 87&#45;&gt;58 -->
<g id="edge11" class="edge">
<title>87&#45;&gt;58</title>
<path fill="none" stroke="black" d="M99,-521.8C99,-510.16 99,-494.55 99,-481.24"/>
<polygon fill="black" stroke="black" points="102.5,-481.18 99,-471.18 95.5,-481.18 102.5,-481.18"/>
<text text-anchor="middle" x="102.5" y="-492.8" font-family="Times,serif" font-size="14.00">5</text>
</g>
<!-- 78&#45;&gt;67 -->
<g id="edge7" class="edge">
<title>78&#45;&gt;67</title>
<path fill="none" stroke="black" d="M171,-521.8C171,-510.16 171,-494.55 171,-481.24"/>
<polygon fill="black" stroke="black" points="174.5,-481.18 171,-471.18 167.5,-481.18 174.5,-481.18"/>
<text text-anchor="middle" x="174.5" y="-492.8" font-family="Times,serif" font-size="14.00">6</text>
</g>
<!-- 88&#45;&gt;68 -->
<g id="edge8" class="edge">
<title>88&#45;&gt;68</title>
<path fill="none" stroke="black" d="M243,-521.8C243,-510.16 243,-494.55 243,-481.24"/>
<polygon fill="black" stroke="black" points="246.5,-481.18 243,-471.18 239.5,-481.18 246.5,-481.18"/>
<text text-anchor="middle" x="246.5" y="-492.8" font-family="Times,serif" font-size="14.00">6</text>
</g>
<!-- 56 -->
<g id="node14" class="node">
<title>56</title>
<ellipse fill="none" stroke="black" cx="171" cy="-366" rx="27" ry="18"/>
<text text-anchor="middle" x="171" y="-362.3" font-family="Times,serif" font-size="14.00">56</text>
</g>
<!-- 67&#45;&gt;56 -->
<g id="edge15" class="edge">
<title>67&#45;&gt;56</title>
<path fill="none" stroke="black" d="M171,-434.8C171,-423.16 171,-407.55 171,-394.24"/>
<polygon fill="black" stroke="black" points="174.5,-394.18 171,-384.18 167.5,-394.18 174.5,-394.18"/>
<text text-anchor="middle" x="174.5" y="-405.8" font-family="Times,serif" font-size="14.00">5</text>
</g>
<!-- 66 -->
<g id="node15" class="node">
<title>66</title>
<ellipse fill="none" stroke="black" cx="243" cy="-366" rx="27" ry="18"/>
<text text-anchor="middle" x="243" y="-362.3" font-family="Times,serif" font-size="14.00">66</text>
</g>
<!-- 67&#45;&gt;66 -->
<g id="edge16" class="edge">
<title>67&#45;&gt;66</title>
<path fill="none" stroke="black" d="M183.87,-436.8C194.93,-423.75 211.04,-404.74 223.65,-389.85"/>
<polygon fill="black" stroke="black" points="226.45,-391.96 230.24,-382.06 221.11,-387.43 226.45,-391.96"/>
<text text-anchor="middle" x="214.5" y="-405.8" font-family="Times,serif" font-size="14.00">6</text>
</g>
<!-- 68&#45;&gt;66 -->
<g id="edge18" class="edge">
<title>68&#45;&gt;66</title>
<path fill="none" stroke="black" d="M243,-434.8C243,-423.16 243,-407.55 243,-394.24"/>
<polygon fill="black" stroke="black" points="246.5,-394.18 243,-384.18 239.5,-394.18 246.5,-394.18"/>
<text text-anchor="middle" x="246.5" y="-405.8" font-family="Times,serif" font-size="14.00">6</text>
</g>
<!-- 55 -->
<g id="node12" class="node">
<title>55</title>
<ellipse fill="none" stroke="black" cx="27" cy="-366" rx="27" ry="18"/>
<text text-anchor="middle" x="27" y="-362.3" font-family="Times,serif" font-size="14.00">55</text>
</g>
<!-- 57&#45;&gt;55 -->
<g id="edge13" class="edge">
<title>57&#45;&gt;55</title>
<path fill="none" stroke="black" d="M27,-434.8C27,-423.16 27,-407.55 27,-394.24"/>
<polygon fill="black" stroke="black" points="30.5,-394.18 27,-384.18 23.5,-394.18 30.5,-394.18"/>
<text text-anchor="middle" x="30.5" y="-405.8" font-family="Times,serif" font-size="14.00">5</text>
</g>
<!-- 65 -->
<g id="node13" class="node">
<title>65</title>
<ellipse fill="none" stroke="black" cx="99" cy="-366" rx="27" ry="18"/>
<text text-anchor="middle" x="99" y="-362.3" font-family="Times,serif" font-size="14.00">65</text>
</g>
<!-- 57&#45;&gt;65 -->
<g id="edge14" class="edge">
<title>57&#45;&gt;65</title>
<path fill="none" stroke="black" d="M39.87,-436.8C50.93,-423.75 67.04,-404.74 79.65,-389.85"/>
<polygon fill="black" stroke="black" points="82.45,-391.96 86.24,-382.06 77.11,-387.43 82.45,-391.96"/>
<text text-anchor="middle" x="70.5" y="-405.8" font-family="Times,serif" font-size="14.00">6</text>
</g>
<!-- 58&#45;&gt;65 -->
<g id="edge17" class="edge">
<title>58&#45;&gt;65</title>
<path fill="none" stroke="black" d="M99,-434.8C99,-423.16 99,-407.55 99,-394.24"/>
<polygon fill="black" stroke="black" points="102.5,-394.18 99,-384.18 95.5,-394.18 102.5,-394.18"/>
<text text-anchor="middle" x="102.5" y="-405.8" font-family="Times,serif" font-size="14.00">6</text>
</g>
<!-- 45 -->
<g id="node16" class="node">
<title>45</title>
<ellipse fill="none" stroke="black" cx="171" cy="-279" rx="27" ry="18"/>
<text text-anchor="middle" x="171" y="-275.3" font-family="Times,serif" font-size="14.00">45</text>
</g>
<!-- 55&#45;&gt;45 -->
<g id="edge22" class="edge">
<title>55&#45;&gt;45</title>
<path fill="none" stroke="black" d="M41.53,-350.8C53.3,-339.89 70.71,-325.04 88,-315 107.34,-303.77 114.43,-305.78 135,-297 136.81,-296.23 138.67,-295.41 140.53,-294.58"/>
<polygon fill="black" stroke="black" points="142.17,-297.68 149.8,-290.34 139.25,-291.32 142.17,-297.68"/>
<text text-anchor="middle" x="91.5" y="-318.8" font-family="Times,serif" font-size="14.00">4</text>
</g>
<!-- 35 -->
<g id="node18" class="node">
<title>35</title>
<ellipse fill="none" stroke="black" cx="27" cy="-279" rx="27" ry="18"/>
<text text-anchor="middle" x="27" y="-275.3" font-family="Times,serif" font-size="14.00">35</text>
</g>
<!-- 55&#45;&gt;35 -->
<g id="edge21" class="edge">
<title>55&#45;&gt;35</title>
<path fill="none" stroke="black" d="M27,-347.8C27,-336.16 27,-320.55 27,-307.24"/>
<polygon fill="black" stroke="black" points="30.5,-307.18 27,-297.18 23.5,-307.18 30.5,-307.18"/>
<text text-anchor="middle" x="30.5" y="-318.8" font-family="Times,serif" font-size="14.00">3</text>
</g>
<!-- 46 -->
<g id="node17" class="node">
<title>46</title>
<ellipse fill="none" stroke="black" cx="243" cy="-279" rx="27" ry="18"/>
<text text-anchor="middle" x="243" y="-275.3" font-family="Times,serif" font-size="14.00">46</text>
</g>
<!-- 65&#45;&gt;46 -->
<g id="edge24" class="edge">
<title>65&#45;&gt;46</title>
<path fill="none" stroke="black" d="M113.53,-350.8C125.3,-339.89 142.71,-325.04 160,-315 179.34,-303.77 186.43,-305.78 207,-297 208.81,-296.23 210.67,-295.41 212.53,-294.58"/>
<polygon fill="black" stroke="black" points="214.17,-297.68 221.8,-290.34 211.25,-291.32 214.17,-297.68"/>
<text text-anchor="middle" x="163.5" y="-318.8" font-family="Times,serif" font-size="14.00">4</text>
</g>
<!-- 36 -->
<g id="node19" class="node">
<title>36</title>
<ellipse fill="none" stroke="black" cx="99" cy="-279" rx="27" ry="18"/>
<text text-anchor="middle" x="99" y="-275.3" font-family="Times,serif" font-size="14.00">36</text>
</g>
<!-- 65&#45;&gt;36 -->
<g id="edge23" class="edge">
<title>65&#45;&gt;36</title>
<path fill="none" stroke="black" d="M99,-347.8C99,-336.16 99,-320.55 99,-307.24"/>
<polygon fill="black" stroke="black" points="102.5,-307.18 99,-297.18 95.5,-307.18 102.5,-307.18"/>
<text text-anchor="middle" x="102.5" y="-318.8" font-family="Times,serif" font-size="14.00">3</text>
</g>
<!-- 56&#45;&gt;45 -->
<g id="edge19" class="edge">
<title>56&#45;&gt;45</title>
<path fill="none" stroke="black" d="M171,-347.8C171,-336.16 171,-320.55 171,-307.24"/>
<polygon fill="black" stroke="black" points="174.5,-307.18 171,-297.18 167.5,-307.18 174.5,-307.18"/>
<text text-anchor="middle" x="174.5" y="-318.8" font-family="Times,serif" font-size="14.00">4</text>
</g>
<!-- 66&#45;&gt;46 -->
<g id="edge20" class="edge">
<title>66&#45;&gt;46</title>
<path fill="none" stroke="black" d="M243,-347.8C243,-336.16 243,-320.55 243,-307.24"/>
<polygon fill="black" stroke="black" points="246.5,-307.18 243,-297.18 239.5,-307.18 246.5,-307.18"/>
<text text-anchor="middle" x="246.5" y="-318.8" font-family="Times,serif" font-size="14.00">4</text>
</g>
<!-- 44 -->
<g id="node21" class="node">
<title>44</title>
<ellipse fill="none" stroke="black" cx="243" cy="-192" rx="27" ry="18"/>
<text text-anchor="middle" x="243" y="-188.3" font-family="Times,serif" font-size="14.00">44</text>
</g>
<!-- 45&#45;&gt;44 -->
<g id="edge30" class="edge">
<title>45&#45;&gt;44</title>
<path fill="none" stroke="black" d="M183.87,-262.8C194.93,-249.75 211.04,-230.74 223.65,-215.85"/>
<polygon fill="black" stroke="black" points="226.45,-217.96 230.24,-208.06 221.11,-213.43 226.45,-217.96"/>
<text text-anchor="middle" x="214.5" y="-231.8" font-family="Times,serif" font-size="14.00">4</text>
</g>
<!-- 34 -->
<g id="node23" class="node">
<title>34</title>
<ellipse fill="none" stroke="black" cx="171" cy="-192" rx="27" ry="18"/>
<text text-anchor="middle" x="171" y="-188.3" font-family="Times,serif" font-size="14.00">34</text>
</g>
<!-- 45&#45;&gt;34 -->
<g id="edge29" class="edge">
<title>45&#45;&gt;34</title>
<path fill="none" stroke="black" d="M171,-260.8C171,-249.16 171,-233.55 171,-220.24"/>
<polygon fill="black" stroke="black" points="174.5,-220.18 171,-210.18 167.5,-220.18 174.5,-220.18"/>
<text text-anchor="middle" x="174.5" y="-231.8" font-family="Times,serif" font-size="14.00">3</text>
</g>
<!-- 46&#45;&gt;44 -->
<g id="edge26" class="edge">
<title>46&#45;&gt;44</title>
<path fill="none" stroke="black" d="M243,-260.8C243,-249.16 243,-233.55 243,-220.24"/>
<polygon fill="black" stroke="black" points="246.5,-220.18 243,-210.18 239.5,-220.18 246.5,-220.18"/>
<text text-anchor="middle" x="246.5" y="-231.8" font-family="Times,serif" font-size="14.00">4</text>
</g>
<!-- 43 -->
<g id="node20" class="node">
<title>43</title>
<ellipse fill="none" stroke="black" cx="99" cy="-192" rx="27" ry="18"/>
<text text-anchor="middle" x="99" y="-188.3" font-family="Times,serif" font-size="14.00">43</text>
</g>
<!-- 35&#45;&gt;43 -->
<g id="edge28" class="edge">
<title>35&#45;&gt;43</title>
<path fill="none" stroke="black" d="M39.87,-262.8C50.93,-249.75 67.04,-230.74 79.65,-215.85"/>
<polygon fill="black" stroke="black" points="82.45,-217.96 86.24,-208.06 77.11,-213.43 82.45,-217.96"/>
<text text-anchor="middle" x="70.5" y="-231.8" font-family="Times,serif" font-size="14.00">4</text>
</g>
<!-- 33 -->
<g id="node22" class="node">
<title>33</title>
<ellipse fill="none" stroke="black" cx="27" cy="-192" rx="27" ry="18"/>
<text text-anchor="middle" x="27" y="-188.3" font-family="Times,serif" font-size="14.00">33</text>
</g>
<!-- 35&#45;&gt;33 -->
<g id="edge27" class="edge">
<title>35&#45;&gt;33</title>
<path fill="none" stroke="black" d="M27,-260.8C27,-249.16 27,-233.55 27,-220.24"/>
<polygon fill="black" stroke="black" points="30.5,-220.18 27,-210.18 23.5,-220.18 30.5,-220.18"/>
<text text-anchor="middle" x="30.5" y="-231.8" font-family="Times,serif" font-size="14.00">3</text>
</g>
<!-- 36&#45;&gt;43 -->
<g id="edge25" class="edge">
<title>36&#45;&gt;43</title>
<path fill="none" stroke="black" d="M99,-260.8C99,-249.16 99,-233.55 99,-220.24"/>
<polygon fill="black" stroke="black" points="102.5,-220.18 99,-210.18 95.5,-220.18 102.5,-220.18"/>
<text text-anchor="middle" x="102.5" y="-231.8" font-family="Times,serif" font-size="14.00">4</text>
</g>
<!-- 14 -->
<g id="node26" class="node">
<title>14</title>
<ellipse fill="none" stroke="black" cx="99" cy="-105" rx="27" ry="18"/>
<text text-anchor="middle" x="99" y="-101.3" font-family="Times,serif" font-size="14.00">14</text>
</g>
<!-- 43&#45;&gt;14 -->
<g id="edge33" class="edge">
<title>43&#45;&gt;14</title>
<path fill="none" stroke="black" d="M99,-173.8C99,-162.16 99,-146.55 99,-133.24"/>
<polygon fill="black" stroke="black" points="102.5,-133.18 99,-123.18 95.5,-133.18 102.5,-133.18"/>
<text text-anchor="middle" x="102.5" y="-144.8" font-family="Times,serif" font-size="14.00">1</text>
</g>
<!-- 24 -->
<g id="node27" class="node">
<title>24</title>
<ellipse fill="none" stroke="black" cx="243" cy="-105" rx="27" ry="18"/>
<text text-anchor="middle" x="243" y="-101.3" font-family="Times,serif" font-size="14.00">24</text>
</g>
<!-- 43&#45;&gt;24 -->
<g id="edge34" class="edge">
<title>43&#45;&gt;24</title>
<path fill="none" stroke="black" d="M113.53,-176.8C125.3,-165.89 142.71,-151.04 160,-141 179.34,-129.77 186.43,-131.78 207,-123 208.81,-122.23 210.67,-121.41 212.53,-120.58"/>
<polygon fill="black" stroke="black" points="214.17,-123.68 221.8,-116.34 211.25,-117.32 214.17,-123.68"/>
<text text-anchor="middle" x="163.5" y="-144.8" font-family="Times,serif" font-size="14.00">2</text>
</g>
<!-- 44&#45;&gt;24 -->
<g id="edge36" class="edge">
<title>44&#45;&gt;24</title>
<path fill="none" stroke="black" d="M243,-173.8C243,-162.16 243,-146.55 243,-133.24"/>
<polygon fill="black" stroke="black" points="246.5,-133.18 243,-123.18 239.5,-133.18 246.5,-133.18"/>
<text text-anchor="middle" x="246.5" y="-144.8" font-family="Times,serif" font-size="14.00">2</text>
</g>
<!-- 13 -->
<g id="node24" class="node">
<title>13</title>
<ellipse fill="none" stroke="black" cx="27" cy="-105" rx="27" ry="18"/>
<text text-anchor="middle" x="27" y="-101.3" font-family="Times,serif" font-size="14.00">13</text>
</g>
<!-- 33&#45;&gt;13 -->
<g id="edge31" class="edge">
<title>33&#45;&gt;13</title>
<path fill="none" stroke="black" d="M27,-173.8C27,-162.16 27,-146.55 27,-133.24"/>
<polygon fill="black" stroke="black" points="30.5,-133.18 27,-123.18 23.5,-133.18 30.5,-133.18"/>
<text text-anchor="middle" x="30.5" y="-144.8" font-family="Times,serif" font-size="14.00">1</text>
</g>
<!-- 23 -->
<g id="node25" class="node">
<title>23</title>
<ellipse fill="none" stroke="black" cx="171" cy="-105" rx="27" ry="18"/>
<text text-anchor="middle" x="171" y="-101.3" font-family="Times,serif" font-size="14.00">23</text>
</g>
<!-- 33&#45;&gt;23 -->
<g id="edge32" class="edge">
<title>33&#45;&gt;23</title>
<path fill="none" stroke="black" d="M41.53,-176.8C53.3,-165.89 70.71,-151.04 88,-141 107.34,-129.77 114.43,-131.78 135,-123 136.81,-122.23 138.67,-121.41 140.53,-120.58"/>
<polygon fill="black" stroke="black" points="142.17,-123.68 149.8,-116.34 139.25,-117.32 142.17,-123.68"/>
<text text-anchor="middle" x="91.5" y="-144.8" font-family="Times,serif" font-size="14.00">2</text>
</g>
<!-- 34&#45;&gt;23 -->
<g id="edge35" class="edge">
<title>34&#45;&gt;23</title>
<path fill="none" stroke="black" d="M171,-173.8C171,-162.16 171,-146.55 171,-133.24"/>
<polygon fill="black" stroke="black" points="174.5,-133.18 171,-123.18 167.5,-133.18 174.5,-133.18"/>
<text text-anchor="middle" x="174.5" y="-144.8" font-family="Times,serif" font-size="14.00">2</text>
</g>
<!-- 11 -->
<g id="node28" class="node">
<title>11</title>
<ellipse fill="none" stroke="green" cx="27" cy="-18" rx="27" ry="18"/>
<text text-anchor="middle" x="27" y="-14.3" font-family="Times,serif" font-size="14.00">11</text>
</g>
<!-- 13&#45;&gt;11 -->
<g id="edge37" class="edge">
<title>13&#45;&gt;11</title>
<path fill="none" stroke="black" d="M27,-86.8C27,-75.16 27,-59.55 27,-46.24"/>
<polygon fill="black" stroke="black" points="30.5,-46.18 27,-36.18 23.5,-46.18 30.5,-46.18"/>
<text text-anchor="middle" x="30.5" y="-57.8" font-family="Times,serif" font-size="14.00">1</text>
</g>
<!-- 12 -->
<g id="node29" class="node">
<title>12</title>
<ellipse fill="none" stroke="green" cx="171" cy="-18" rx="27" ry="18"/>
<text text-anchor="middle" x="171" y="-14.3" font-family="Times,serif" font-size="14.00">12</text>
</g>
<!-- 23&#45;&gt;12 -->
<g id="edge38" class="edge">
<title>23&#45;&gt;12</title>
<path fill="none" stroke="black" d="M171,-86.8C171,-75.16 171,-59.55 171,-46.24"/>
<polygon fill="black" stroke="black" points="174.5,-46.18 171,-36.18 167.5,-46.18 174.5,-46.18"/>
<text text-anchor="middle" x="174.5" y="-57.8" font-family="Times,serif" font-size="14.00">1</text>
</g>
<!-- 21 -->
<g id="node30" class="node">
<title>21</title>
<ellipse fill="none" stroke="green" cx="99" cy="-18" rx="27" ry="18"/>
<text text-anchor="middle" x="99" y="-14.3" font-family="Times,serif" font-size="14.00">21</text>
</g>
<!-- 14&#45;&gt;21 -->
<g id="edge39" class="edge">
<title>14&#45;&gt;21</title>
<path fill="none" stroke="black" d="M99,-86.8C99,-75.16 99,-59.55 99,-46.24"/>
<polygon fill="black" stroke="black" points="102.5,-46.18 99,-36.18 95.5,-46.18 102.5,-46.18"/>
<text text-anchor="middle" x="102.5" y="-57.8" font-family="Times,serif" font-size="14.00">2</text>
</g>
<!-- 22 -->
<g id="node31" class="node">
<title>22</title>
<ellipse fill="none" stroke="green" cx="243" cy="-18" rx="27" ry="18"/>
<text text-anchor="middle" x="243" y="-14.3" font-family="Times,serif" font-size="14.00">22</text>
</g>
<!-- 24&#45;&gt;22 -->
<g id="edge40" class="edge">
<title>24&#45;&gt;22</title>
<path fill="none" stroke="black" d="M243,-86.8C243,-75.16 243,-59.55 243,-46.24"/>
<polygon fill="black" stroke="black" points="246.5,-46.18 243,-36.18 239.5,-46.18 246.5,-46.18"/>
<text text-anchor="middle" x="246.5" y="-57.8" font-family="Times,serif" font-size="14.00">2</text>
</g>
</g>
</svg>
